<svg width="193" height="44" viewBox="0 0 193 44" fill="none" xmlns="http://www.w3.org/2000/svg">
<rect x="0.35" y="0.35" width="192.3" height="43.3" rx="9.65" fill="white" stroke="black" stroke-width="0.7"/>
<path d="M31.656 28L28.776 23.95C28.452 23.986 28.116 24.004 27.768 24.004H24.384V28H23.052V15.4H27.768C29.376 15.4 30.636 15.784 31.548 16.552C32.46 17.32 32.916 18.376 32.916 19.72C32.916 20.704 32.664 21.538 32.16 22.222C31.668 22.894 30.96 23.38 30.036 23.68L33.114 28H31.656ZM27.732 22.87C28.98 22.87 29.934 22.594 30.594 22.042C31.254 21.49 31.584 20.716 31.584 19.72C31.584 18.7 31.254 17.92 30.594 17.38C29.934 16.828 28.98 16.552 27.732 16.552H24.384V22.87H27.732ZM44.0338 23.662H36.1138C36.1858 24.646 36.5638 25.444 37.2478 26.056C37.9318 26.656 38.7958 26.956 39.8398 26.956C40.4278 26.956 40.9678 26.854 41.4598 26.65C41.9518 26.434 42.3778 26.122 42.7378 25.714L43.4578 26.542C43.0378 27.046 42.5098 27.43 41.8738 27.694C41.2498 27.958 40.5598 28.09 39.8038 28.09C38.8318 28.09 37.9678 27.886 37.2118 27.478C36.4678 27.058 35.8858 26.482 35.4658 25.75C35.0458 25.018 34.8358 24.19 34.8358 23.266C34.8358 22.342 35.0338 21.514 35.4298 20.782C35.8378 20.05 36.3898 19.48 37.0858 19.072C37.7938 18.664 38.5858 18.46 39.4618 18.46C40.3378 18.46 41.1238 18.664 41.8198 19.072C42.5158 19.48 43.0618 20.05 43.4578 20.782C43.8538 21.502 44.0518 22.33 44.0518 23.266L44.0338 23.662ZM39.4618 19.558C38.5498 19.558 37.7818 19.852 37.1578 20.44C36.5458 21.016 36.1978 21.772 36.1138 22.708H42.8278C42.7438 21.772 42.3898 21.016 41.7658 20.44C41.1538 19.852 40.3858 19.558 39.4618 19.558ZM51.6391 27.424C51.3991 27.64 51.0991 27.808 50.7391 27.928C50.3911 28.036 50.0251 28.09 49.6411 28.09C48.7531 28.09 48.0691 27.85 47.5891 27.37C47.1091 26.89 46.8691 26.212 46.8691 25.336V19.612H45.1771V18.532H46.8691V16.462H48.1471V18.532H51.0271V19.612H48.1471V25.264C48.1471 25.828 48.2851 26.26 48.5611 26.56C48.8491 26.848 49.2571 26.992 49.7851 26.992C50.0491 26.992 50.3011 26.95 50.5411 26.866C50.7931 26.782 51.0091 26.662 51.1891 26.506L51.6391 27.424ZM62.4976 18.532V28H61.2736V26.272C60.9376 26.848 60.4756 27.298 59.8876 27.622C59.2996 27.934 58.6276 28.09 57.8716 28.09C56.6356 28.09 55.6576 27.748 54.9376 27.064C54.2296 26.368 53.8756 25.354 53.8756 24.022V18.532H55.1536V23.896C55.1536 24.892 55.3996 25.648 55.8916 26.164C56.3836 26.68 57.0856 26.938 57.9976 26.938C58.9936 26.938 59.7796 26.638 60.3556 26.038C60.9316 25.426 61.2196 24.58 61.2196 23.5V18.532H62.4976ZM67.3009 20.386C67.6009 19.75 68.0449 19.27 68.6329 18.946C69.2329 18.622 69.9709 18.46 70.8469 18.46V19.702L70.5409 19.684C69.5449 19.684 68.7649 19.99 68.2009 20.602C67.6369 21.214 67.3549 22.072 67.3549 23.176V28H66.0769V18.532H67.3009V20.386ZM77.9849 18.46C79.1729 18.46 80.1149 18.808 80.8109 19.504C81.5189 20.188 81.8729 21.19 81.8729 22.51V28H80.5949V22.636C80.5949 21.652 80.3489 20.902 79.8569 20.386C79.3649 19.87 78.6629 19.612 77.7509 19.612C76.7309 19.612 75.9209 19.918 75.3209 20.53C74.7329 21.13 74.4389 21.964 74.4389 23.032V28H73.1609V18.532H74.3849V20.278C74.7329 19.702 75.2129 19.258 75.8249 18.946C76.4489 18.622 77.1689 18.46 77.9849 18.46Z" fill="black"/>
</svg>
