<svg width="193" height="44" viewBox="0 0 193 44" fill="none" xmlns="http://www.w3.org/2000/svg">
<rect x="0.35" y="0.35" width="192.3" height="43.3" rx="9.65" fill="white" stroke="black" stroke-width="0.7"/>
<path d="M23.052 15.4H28.182C29.514 15.4 30.69 15.67 31.71 16.21C32.73 16.738 33.522 17.482 34.086 18.442C34.65 19.39 34.932 20.476 34.932 21.7C34.932 22.924 34.65 24.016 34.086 24.976C33.522 25.924 32.73 26.668 31.71 27.208C30.69 27.736 29.514 28 28.182 28H23.052V15.4ZM28.11 26.848C29.214 26.848 30.18 26.632 31.008 26.2C31.836 25.756 32.478 25.15 32.934 24.382C33.39 23.602 33.618 22.708 33.618 21.7C33.618 20.692 33.39 19.804 32.934 19.036C32.478 18.256 31.836 17.65 31.008 17.218C30.18 16.774 29.214 16.552 28.11 16.552H24.384V26.848H28.11ZM37.6531 18.532H38.9311V28H37.6531V18.532ZM38.3011 16.462C38.0371 16.462 37.8151 16.372 37.6351 16.192C37.4551 16.012 37.3651 15.796 37.3651 15.544C37.3651 15.304 37.4551 15.094 37.6351 14.914C37.8151 14.734 38.0371 14.644 38.3011 14.644C38.5651 14.644 38.7871 14.734 38.9671 14.914C39.1471 15.082 39.2371 15.286 39.2371 15.526C39.2371 15.79 39.1471 16.012 38.9671 16.192C38.7871 16.372 38.5651 16.462 38.3011 16.462ZM45.0251 28.09C44.2571 28.09 43.5191 27.982 42.8111 27.766C42.1151 27.538 41.5691 27.256 41.1731 26.92L41.7491 25.912C42.1451 26.224 42.6431 26.482 43.2431 26.686C43.8431 26.878 44.4671 26.974 45.1151 26.974C45.9791 26.974 46.6151 26.842 47.0231 26.578C47.4431 26.302 47.6531 25.918 47.6531 25.426C47.6531 25.078 47.5391 24.808 47.3111 24.616C47.0831 24.412 46.7951 24.262 46.4471 24.166C46.0991 24.058 45.6371 23.956 45.0611 23.86C44.2931 23.716 43.6751 23.572 43.2071 23.428C42.7391 23.272 42.3371 23.014 42.0011 22.654C41.6771 22.294 41.5151 21.796 41.5151 21.16C41.5151 20.368 41.8451 19.72 42.5051 19.216C43.1651 18.712 44.0831 18.46 45.2591 18.46C45.8711 18.46 46.4831 18.544 47.0951 18.712C47.7071 18.868 48.2111 19.078 48.6071 19.342L48.0491 20.368C47.2691 19.828 46.3391 19.558 45.2591 19.558C44.4431 19.558 43.8251 19.702 43.4051 19.99C42.9971 20.278 42.7931 20.656 42.7931 21.124C42.7931 21.484 42.9071 21.772 43.1351 21.988C43.3751 22.204 43.6691 22.366 44.0171 22.474C44.3651 22.57 44.8451 22.672 45.4571 22.78C46.2131 22.924 46.8191 23.068 47.2751 23.212C47.7311 23.356 48.1211 23.602 48.4451 23.95C48.7691 24.298 48.9311 24.778 48.9311 25.39C48.9311 26.218 48.5831 26.878 47.8871 27.37C47.2031 27.85 46.2491 28.09 45.0251 28.09ZM55.2177 28.09C54.2817 28.09 53.4417 27.886 52.6977 27.478C51.9657 27.07 51.3897 26.5 50.9697 25.768C50.5497 25.024 50.3397 24.19 50.3397 23.266C50.3397 22.342 50.5497 21.514 50.9697 20.782C51.3897 20.05 51.9657 19.48 52.6977 19.072C53.4417 18.664 54.2817 18.46 55.2177 18.46C56.0337 18.46 56.7597 18.622 57.3957 18.946C58.0437 19.258 58.5537 19.72 58.9257 20.332L57.9717 20.98C57.6597 20.512 57.2637 20.164 56.7837 19.936C56.3037 19.696 55.7817 19.576 55.2177 19.576C54.5337 19.576 53.9157 19.732 53.3637 20.044C52.8237 20.344 52.3977 20.776 52.0857 21.34C51.7857 21.904 51.6357 22.546 51.6357 23.266C51.6357 23.998 51.7857 24.646 52.0857 25.21C52.3977 25.762 52.8237 26.194 53.3637 26.506C53.9157 26.806 54.5337 26.956 55.2177 26.956C55.7817 26.956 56.3037 26.842 56.7837 26.614C57.2637 26.386 57.6597 26.038 57.9717 25.57L58.9257 26.218C58.5537 26.83 58.0437 27.298 57.3957 27.622C56.7477 27.934 56.0217 28.09 55.2177 28.09ZM65.1481 28.09C64.2361 28.09 63.4141 27.886 62.6821 27.478C61.9501 27.058 61.3741 26.482 60.9541 25.75C60.5341 25.018 60.3241 24.19 60.3241 23.266C60.3241 22.342 60.5341 21.514 60.9541 20.782C61.3741 20.05 61.9501 19.48 62.6821 19.072C63.4141 18.664 64.2361 18.46 65.1481 18.46C66.0601 18.46 66.8821 18.664 67.6141 19.072C68.3461 19.48 68.9161 20.05 69.3241 20.782C69.7441 21.514 69.9541 22.342 69.9541 23.266C69.9541 24.19 69.7441 25.018 69.3241 25.75C68.9161 26.482 68.3461 27.058 67.6141 27.478C66.8821 27.886 66.0601 28.09 65.1481 28.09ZM65.1481 26.956C65.8201 26.956 66.4201 26.806 66.9481 26.506C67.4881 26.194 67.9081 25.756 68.2081 25.192C68.5081 24.628 68.6581 23.986 68.6581 23.266C68.6581 22.546 68.5081 21.904 68.2081 21.34C67.9081 20.776 67.4881 20.344 66.9481 20.044C66.4201 19.732 65.8201 19.576 65.1481 19.576C64.4761 19.576 63.8701 19.732 63.3301 20.044C62.8021 20.344 62.3821 20.776 62.0701 21.34C61.7701 21.904 61.6201 22.546 61.6201 23.266C61.6201 23.986 61.7701 24.628 62.0701 25.192C62.3821 25.756 62.8021 26.194 63.3301 26.506C63.8701 26.806 64.4761 26.956 65.1481 26.956ZM81.0953 18.532V28H79.8712V26.272C79.5353 26.848 79.0733 27.298 78.4853 27.622C77.8973 27.934 77.2253 28.09 76.4693 28.09C75.2333 28.09 74.2553 27.748 73.5353 27.064C72.8273 26.368 72.4733 25.354 72.4733 24.022V18.532H73.7513V23.896C73.7513 24.892 73.9973 25.648 74.4893 26.164C74.9813 26.68 75.6833 26.938 76.5953 26.938C77.5913 26.938 78.3773 26.638 78.9533 26.038C79.5293 25.426 79.8173 24.58 79.8173 23.5V18.532H81.0953ZM89.4986 18.46C90.6866 18.46 91.6286 18.808 92.3246 19.504C93.0326 20.188 93.3866 21.19 93.3866 22.51V28H92.1086V22.636C92.1086 21.652 91.8626 20.902 91.3706 20.386C90.8786 19.87 90.1766 19.612 89.2646 19.612C88.2446 19.612 87.4346 19.918 86.8346 20.53C86.2466 21.13 85.9526 21.964 85.9526 23.032V28H84.6746V18.532H85.8986V20.278C86.2466 19.702 86.7266 19.258 87.3386 18.946C87.9626 18.622 88.6826 18.46 89.4986 18.46ZM101.842 27.424C101.602 27.64 101.302 27.808 100.942 27.928C100.594 28.036 100.228 28.09 99.8442 28.09C98.9562 28.09 98.2722 27.85 97.7922 27.37C97.3122 26.89 97.0722 26.212 97.0722 25.336V19.612H95.3802V18.532H97.0722V16.462H98.3502V18.532H101.23V19.612H98.3502V25.264C98.3502 25.828 98.4882 26.26 98.7642 26.56C99.0522 26.848 99.4602 26.992 99.9882 26.992C100.252 26.992 100.504 26.95 100.744 26.866C100.996 26.782 101.212 26.662 101.392 26.506L101.842 27.424Z" fill="black"/>
</svg>
