<svg width="193" height="44" viewBox="0 0 193 44" fill="none" xmlns="http://www.w3.org/2000/svg">
<rect x="0.35" y="0.35" width="192.3" height="43.3" rx="9.65" fill="white" stroke="black" stroke-width="0.7"/>
<path d="M31.962 26.848V28H23.052V15.4H31.692V16.552H24.384V21.034H30.9V22.168H24.384V26.848H31.962ZM37.2204 28.09C36.4524 28.09 35.7144 27.982 35.0064 27.766C34.3104 27.538 33.7644 27.256 33.3684 26.92L33.9444 25.912C34.3404 26.224 34.8384 26.482 35.4384 26.686C36.0384 26.878 36.6624 26.974 37.3104 26.974C38.1744 26.974 38.8104 26.842 39.2184 26.578C39.6384 26.302 39.8484 25.918 39.8484 25.426C39.8484 25.078 39.7344 24.808 39.5064 24.616C39.2784 24.412 38.9904 24.262 38.6424 24.166C38.2944 24.058 37.8324 23.956 37.2564 23.86C36.4884 23.716 35.8704 23.572 35.4024 23.428C34.9344 23.272 34.5324 23.014 34.1964 22.654C33.8724 22.294 33.7104 21.796 33.7104 21.16C33.7104 20.368 34.0404 19.72 34.7004 19.216C35.3604 18.712 36.2784 18.46 37.4544 18.46C38.0664 18.46 38.6784 18.544 39.2904 18.712C39.9024 18.868 40.4064 19.078 40.8024 19.342L40.2444 20.368C39.4644 19.828 38.5344 19.558 37.4544 19.558C36.6384 19.558 36.0204 19.702 35.6004 19.99C35.1924 20.278 34.9884 20.656 34.9884 21.124C34.9884 21.484 35.1024 21.772 35.3304 21.988C35.5704 22.204 35.8644 22.366 36.2124 22.474C36.5604 22.57 37.0404 22.672 37.6524 22.78C38.4084 22.924 39.0144 23.068 39.4704 23.212C39.9264 23.356 40.3164 23.602 40.6404 23.95C40.9644 24.298 41.1264 24.778 41.1264 25.39C41.1264 26.218 40.7784 26.878 40.0824 27.37C39.3984 27.85 38.4444 28.09 37.2204 28.09ZM47.413 28.09C46.477 28.09 45.637 27.886 44.893 27.478C44.161 27.07 43.585 26.5 43.165 25.768C42.745 25.024 42.535 24.19 42.535 23.266C42.535 22.342 42.745 21.514 43.165 20.782C43.585 20.05 44.161 19.48 44.893 19.072C45.637 18.664 46.477 18.46 47.413 18.46C48.229 18.46 48.955 18.622 49.591 18.946C50.239 19.258 50.749 19.72 51.121 20.332L50.167 20.98C49.855 20.512 49.459 20.164 48.979 19.936C48.499 19.696 47.977 19.576 47.413 19.576C46.729 19.576 46.111 19.732 45.559 20.044C45.019 20.344 44.593 20.776 44.281 21.34C43.981 21.904 43.831 22.546 43.831 23.266C43.831 23.998 43.981 24.646 44.281 25.21C44.593 25.762 45.019 26.194 45.559 26.506C46.111 26.806 46.729 26.956 47.413 26.956C47.977 26.956 48.499 26.842 48.979 26.614C49.459 26.386 49.855 26.038 50.167 25.57L51.121 26.218C50.749 26.83 50.239 27.298 49.591 27.622C48.943 27.934 48.217 28.09 47.413 28.09ZM56.9436 18.46C58.1796 18.46 59.1276 18.772 59.7876 19.396C60.4476 20.008 60.7776 20.92 60.7776 22.132V28H59.5536V26.524C59.2656 27.016 58.8396 27.4 58.2756 27.676C57.7236 27.952 57.0636 28.09 56.2956 28.09C55.2396 28.09 54.3996 27.838 53.7756 27.334C53.1516 26.83 52.8396 26.164 52.8396 25.336C52.8396 24.532 53.1276 23.884 53.7036 23.392C54.2916 22.9 55.2216 22.654 56.4936 22.654H59.4996V22.078C59.4996 21.262 59.2716 20.644 58.8156 20.224C58.3596 19.792 57.6936 19.576 56.8176 19.576C56.2176 19.576 55.6416 19.678 55.0896 19.882C54.5376 20.074 54.0636 20.344 53.6676 20.692L53.0916 19.738C53.5716 19.33 54.1476 19.018 54.8196 18.802C55.4916 18.574 56.1996 18.46 56.9436 18.46ZM56.4936 27.082C57.2136 27.082 57.8316 26.92 58.3476 26.596C58.8636 26.26 59.2476 25.78 59.4996 25.156V23.608H56.5296C54.9096 23.608 54.0996 24.172 54.0996 25.3C54.0996 25.852 54.3096 26.29 54.7296 26.614C55.1496 26.926 55.7376 27.082 56.4936 27.082ZM69.1268 18.46C70.0148 18.46 70.8188 18.664 71.5388 19.072C72.2588 19.468 72.8228 20.032 73.2308 20.764C73.6388 21.496 73.8428 22.33 73.8428 23.266C73.8428 24.214 73.6388 25.054 73.2308 25.786C72.8228 26.518 72.2588 27.088 71.5388 27.496C70.8308 27.892 70.0268 28.09 69.1268 28.09C68.3588 28.09 67.6628 27.934 67.0388 27.622C66.4268 27.298 65.9228 26.83 65.5268 26.218V31.492H64.2488V18.532H65.4728V20.404C65.8568 19.78 66.3608 19.3 66.9848 18.964C67.6208 18.628 68.3348 18.46 69.1268 18.46ZM69.0368 26.956C69.6968 26.956 70.2968 26.806 70.8368 26.506C71.3768 26.194 71.7968 25.756 72.0968 25.192C72.4088 24.628 72.5648 23.986 72.5648 23.266C72.5648 22.546 72.4088 21.91 72.0968 21.358C71.7968 20.794 71.3768 20.356 70.8368 20.044C70.2968 19.732 69.6968 19.576 69.0368 19.576C68.3648 19.576 67.7588 19.732 67.2188 20.044C66.6908 20.356 66.2708 20.794 65.9588 21.358C65.6588 21.91 65.5088 22.546 65.5088 23.266C65.5088 23.986 65.6588 24.628 65.9588 25.192C66.2708 25.756 66.6908 26.194 67.2188 26.506C67.7588 26.806 68.3648 26.956 69.0368 26.956ZM84.692 23.662H76.772C76.844 24.646 77.222 25.444 77.906 26.056C78.59 26.656 79.454 26.956 80.498 26.956C81.086 26.956 81.626 26.854 82.118 26.65C82.61 26.434 83.036 26.122 83.396 25.714L84.116 26.542C83.696 27.046 83.168 27.43 82.532 27.694C81.908 27.958 81.218 28.09 80.462 28.09C79.49 28.09 78.626 27.886 77.87 27.478C77.126 27.058 76.544 26.482 76.124 25.75C75.704 25.018 75.494 24.19 75.494 23.266C75.494 22.342 75.692 21.514 76.088 20.782C76.496 20.05 77.048 19.48 77.744 19.072C78.452 18.664 79.244 18.46 80.12 18.46C80.996 18.46 81.782 18.664 82.478 19.072C83.174 19.48 83.72 20.05 84.116 20.782C84.512 21.502 84.71 22.33 84.71 23.266L84.692 23.662ZM80.12 19.558C79.208 19.558 78.44 19.852 77.816 20.44C77.204 21.016 76.856 21.772 76.772 22.708H83.486C83.402 21.772 83.048 21.016 82.424 20.44C81.812 19.852 81.044 19.558 80.12 19.558Z" fill="black"/>
</svg>
