<svg width="133" height="36" viewBox="0 0 133 36" fill="none" xmlns="http://www.w3.org/2000/svg">
<rect x="0.35" y="0.35" width="132.3" height="35.3" rx="8.65" stroke="black" stroke-width="0.7"/>
<path d="M26.848 21.008H20.608L19.264 24H18.032L23.152 12.8H24.32L29.44 24H28.192L26.848 21.008ZM26.416 20.048L23.728 14.032L21.04 20.048H26.416ZM38.6546 12.128V24H37.5666V22.336C37.2253 22.9013 36.772 23.3333 36.2066 23.632C35.652 23.9307 35.0226 24.08 34.3186 24.08C33.5293 24.08 32.8146 23.8987 32.1746 23.536C31.5346 23.1733 31.0333 22.6667 30.6706 22.016C30.308 21.3653 30.1266 20.624 30.1266 19.792C30.1266 18.96 30.308 18.2187 30.6706 17.568C31.0333 16.9173 31.5346 16.416 32.1746 16.064C32.8146 15.7013 33.5293 15.52 34.3186 15.52C35.0013 15.52 35.6146 15.664 36.1586 15.952C36.7133 16.2293 37.1666 16.64 37.5186 17.184V12.128H38.6546ZM34.4146 23.072C35.0013 23.072 35.5293 22.9387 35.9986 22.672C36.4786 22.3947 36.852 22.0053 37.1186 21.504C37.396 21.0027 37.5346 20.432 37.5346 19.792C37.5346 19.152 37.396 18.5813 37.1186 18.08C36.852 17.5787 36.4786 17.1947 35.9986 16.928C35.5293 16.6507 35.0013 16.512 34.4146 16.512C33.8173 16.512 33.2786 16.6507 32.7986 16.928C32.3293 17.1947 31.956 17.5787 31.6786 18.08C31.412 18.5813 31.2786 19.152 31.2786 19.792C31.2786 20.432 31.412 21.0027 31.6786 21.504C31.956 22.0053 32.3293 22.3947 32.7986 22.672C33.2786 22.9387 33.8173 23.072 34.4146 23.072ZM49.4984 12.128V24H48.4104V22.336C48.069 22.9013 47.6157 23.3333 47.0504 23.632C46.4957 23.9307 45.8664 24.08 45.1624 24.08C44.373 24.08 43.6584 23.8987 43.0184 23.536C42.3784 23.1733 41.877 22.6667 41.5144 22.016C41.1517 21.3653 40.9704 20.624 40.9704 19.792C40.9704 18.96 41.1517 18.2187 41.5144 17.568C41.877 16.9173 42.3784 16.416 43.0184 16.064C43.6584 15.7013 44.373 15.52 45.1624 15.52C45.845 15.52 46.4584 15.664 47.0024 15.952C47.557 16.2293 48.0104 16.64 48.3624 17.184V12.128H49.4984ZM45.2584 23.072C45.845 23.072 46.373 22.9387 46.8424 22.672C47.3224 22.3947 47.6957 22.0053 47.9624 21.504C48.2397 21.0027 48.3784 20.432 48.3784 19.792C48.3784 19.152 48.2397 18.5813 47.9624 18.08C47.6957 17.5787 47.3224 17.1947 46.8424 16.928C46.373 16.6507 45.845 16.512 45.2584 16.512C44.661 16.512 44.1224 16.6507 43.6424 16.928C43.173 17.1947 42.7997 17.5787 42.5224 18.08C42.2557 18.5813 42.1224 19.152 42.1224 19.792C42.1224 20.432 42.2557 21.0027 42.5224 21.504C42.7997 22.0053 43.173 22.3947 43.6424 22.672C44.1224 22.9387 44.661 23.072 45.2584 23.072ZM61.2816 23.488C61.0683 23.68 60.8016 23.8293 60.4816 23.936C60.1723 24.032 59.847 24.08 59.5056 24.08C58.7163 24.08 58.1083 23.8667 57.6816 23.44C57.255 23.0133 57.0416 22.4107 57.0416 21.632V16.544H55.5376V15.584H57.0416V13.744H58.1776V15.584H60.7376V16.544H58.1776V21.568C58.1776 22.0693 58.3003 22.4533 58.5456 22.72C58.8016 22.976 59.1643 23.104 59.6336 23.104C59.8683 23.104 60.0923 23.0667 60.3056 22.992C60.5296 22.9173 60.7216 22.8107 60.8816 22.672L61.2816 23.488ZM66.4928 24.08C65.6821 24.08 64.9514 23.8987 64.3008 23.536C63.6501 23.1627 63.1381 22.6507 62.7648 22C62.3914 21.3493 62.2048 20.6133 62.2048 19.792C62.2048 18.9707 62.3914 18.2347 62.7648 17.584C63.1381 16.9333 63.6501 16.4267 64.3008 16.064C64.9514 15.7013 65.6821 15.52 66.4928 15.52C67.3034 15.52 68.0341 15.7013 68.6848 16.064C69.3354 16.4267 69.8421 16.9333 70.2048 17.584C70.5781 18.2347 70.7648 18.9707 70.7648 19.792C70.7648 20.6133 70.5781 21.3493 70.2048 22C69.8421 22.6507 69.3354 23.1627 68.6848 23.536C68.0341 23.8987 67.3034 24.08 66.4928 24.08ZM66.4928 23.072C67.0901 23.072 67.6234 22.9387 68.0928 22.672C68.5728 22.3947 68.9461 22.0053 69.2128 21.504C69.4794 21.0027 69.6128 20.432 69.6128 19.792C69.6128 19.152 69.4794 18.5813 69.2128 18.08C68.9461 17.5787 68.5728 17.1947 68.0928 16.928C67.6234 16.6507 67.0901 16.512 66.4928 16.512C65.8954 16.512 65.3568 16.6507 64.8768 16.928C64.4074 17.1947 64.0341 17.5787 63.7568 18.08C63.4901 18.5813 63.3568 19.152 63.3568 19.792C63.3568 20.432 63.4901 21.0027 63.7568 21.504C64.0341 22.0053 64.4074 22.3947 64.8768 22.672C65.3568 22.9387 65.8954 23.072 66.4928 23.072ZM80.668 15.584V24H79.58V22.464C79.2813 22.976 78.8707 23.376 78.348 23.664C77.8253 23.9413 77.228 24.08 76.556 24.08C75.4573 24.08 74.588 23.776 73.948 23.168C73.3187 22.5493 73.004 21.648 73.004 20.464V15.584H74.14V20.352C74.14 21.2373 74.3587 21.9093 74.796 22.368C75.2333 22.8267 75.8573 23.056 76.668 23.056C77.5533 23.056 78.252 22.7893 78.764 22.256C79.276 21.712 79.532 20.96 79.532 20V15.584H80.668ZM84.9376 17.232C85.2043 16.6667 85.599 16.24 86.1216 15.952C86.655 15.664 87.311 15.52 88.0896 15.52V16.624L87.8176 16.608C86.9323 16.608 86.239 16.88 85.7376 17.424C85.2363 17.968 84.9856 18.7307 84.9856 19.712V24H83.8496V15.584H84.9376V17.232Z" fill="black"/>
<path d="M112.167 17.1667V12.1667H113.834V17.1667H118.834V18.8333H113.834V23.8333H112.167V18.8333H107.167V17.1667H112.167Z" fill="black"/>
</svg>
