<svg width="1440" height="900" viewBox="0 0 1440 900" fill="none" xmlns="http://www.w3.org/2000/svg">
<g clip-path="url(#clip0)">
<rect width="1440" height="900" fill="white"/>
<g filter="url(#filter0_f)">
<circle cx="1036" cy="-4" r="404" fill="#E5D7BF" fill-opacity="0.49"/>
</g>
<path d="M365.824 615.917L354.667 615.917L354.667 614.083L365.824 614.083L360.907 609.166L362.204 607.87L369.333 615L362.204 622.13L360.907 620.834L365.824 615.917Z" fill="white"/>
<path d="M157.692 608.4H160.032V619.02H166.62V621H157.692V608.4ZM174.125 621.18C172.841 621.18 171.683 620.904 170.651 620.352C169.619 619.788 168.809 619.014 168.221 618.03C167.633 617.034 167.339 615.924 167.339 614.7C167.339 613.476 167.633 612.372 168.221 611.388C168.809 610.392 169.619 609.618 170.651 609.066C171.683 608.502 172.841 608.22 174.125 608.22C175.409 608.22 176.567 608.502 177.599 609.066C178.631 609.618 179.441 610.386 180.029 611.37C180.617 612.354 180.911 613.464 180.911 614.7C180.911 615.936 180.617 617.046 180.029 618.03C179.441 619.014 178.631 619.788 177.599 620.352C176.567 620.904 175.409 621.18 174.125 621.18ZM174.125 619.128C174.965 619.128 175.721 618.942 176.393 618.57C177.065 618.186 177.593 617.658 177.977 616.986C178.361 616.302 178.553 615.54 178.553 614.7C178.553 613.86 178.361 613.104 177.977 612.432C177.593 611.748 177.065 611.22 176.393 610.848C175.721 610.464 174.965 610.272 174.125 610.272C173.285 610.272 172.529 610.464 171.857 610.848C171.185 611.22 170.657 611.748 170.273 612.432C169.889 613.104 169.697 613.86 169.697 614.7C169.697 615.54 169.889 616.302 170.273 616.986C170.657 617.658 171.185 618.186 171.857 618.57C172.529 618.942 173.285 619.128 174.125 619.128ZM191.995 614.556H194.209V619.578C193.561 620.094 192.805 620.49 191.941 620.766C191.077 621.042 190.189 621.18 189.277 621.18C187.993 621.18 186.835 620.904 185.803 620.352C184.771 619.788 183.961 619.014 183.373 618.03C182.785 617.046 182.491 615.936 182.491 614.7C182.491 613.464 182.785 612.354 183.373 611.37C183.961 610.386 184.771 609.618 185.803 609.066C186.847 608.502 188.017 608.22 189.313 608.22C190.369 608.22 191.329 608.394 192.193 608.742C193.057 609.09 193.783 609.6 194.371 610.272L192.895 611.712C191.935 610.752 190.777 610.272 189.421 610.272C188.533 610.272 187.741 610.458 187.045 610.83C186.361 611.202 185.821 611.724 185.425 612.396C185.041 613.068 184.849 613.836 184.849 614.7C184.849 615.54 185.041 616.296 185.425 616.968C185.821 617.64 186.361 618.168 187.045 618.552C187.741 618.936 188.527 619.128 189.403 619.128C190.387 619.128 191.251 618.912 191.995 618.48V614.556ZM197.296 608.4H199.636V621H197.296V608.4ZM214.24 608.4V621H212.314L205.366 612.468V621H203.044V608.4H204.97L211.918 616.932V608.4H214.24Z" fill="white"/>
</g>
<defs>
<filter id="filter0_f" x="132" y="-908" width="1808" height="1808" filterUnits="userSpaceOnUse" color-interpolation-filters="sRGB">
<feFlood flood-opacity="0" result="BackgroundImageFix"/>
<feBlend mode="normal" in="SourceGraphic" in2="BackgroundImageFix" result="shape"/>
<feGaussianBlur stdDeviation="250" result="effect1_foregroundBlur"/>
</filter>
<clipPath id="clip0">
<rect width="1440" height="900" fill="white"/>
</clipPath>
</defs>
</svg>
