<svg width="368" height="60" viewBox="0 0 368 60" fill="none" xmlns="http://www.w3.org/2000/svg">
<rect width="368" height="60" rx="12" fill="#01215C"/>
<path d="M37.176 29.0833L48.3337 29.0833L48.3337 30.9167L37.176 30.9167L42.093 35.8337L40.7968 37.1298L33.667 30L40.7968 22.8702L42.093 24.1663L37.176 29.0833Z" fill="white"/>
<path d="M211.259 29.466C211.991 29.67 212.567 30.042 212.987 30.582C213.407 31.11 213.617 31.782 213.617 32.598C213.617 33.69 213.203 34.53 212.375 35.118C211.559 35.706 210.365 36 208.793 36H202.781V23.4H208.433C209.873 23.4 210.983 23.688 211.763 24.264C212.555 24.84 212.951 25.638 212.951 26.658C212.951 27.318 212.795 27.888 212.483 28.368C212.183 28.848 211.775 29.214 211.259 29.466ZM204.581 24.858V28.89H208.271C209.195 28.89 209.903 28.722 210.395 28.386C210.899 28.038 211.151 27.534 211.151 26.874C211.151 26.214 210.899 25.716 210.395 25.38C209.903 25.032 209.195 24.858 208.271 24.858H204.581ZM208.721 34.542C209.741 34.542 210.509 34.374 211.025 34.038C211.541 33.702 211.799 33.174 211.799 32.454C211.799 31.05 210.773 30.348 208.721 30.348H204.581V34.542H208.721ZM224.432 32.85H217.736L216.35 36H214.496L220.202 23.4H221.984L227.708 36H225.818L224.432 32.85ZM223.802 31.41L221.084 25.236L218.366 31.41H223.802ZM235.045 36.144C233.785 36.144 232.645 35.868 231.625 35.316C230.617 34.752 229.825 33.984 229.249 33.012C228.673 32.028 228.385 30.924 228.385 29.7C228.385 28.476 228.673 27.378 229.249 26.406C229.825 25.422 230.623 24.654 231.643 24.102C232.663 23.538 233.803 23.256 235.063 23.256C236.047 23.256 236.947 23.424 237.763 23.76C238.579 24.084 239.275 24.57 239.851 25.218L238.681 26.352C237.733 25.356 236.551 24.858 235.135 24.858C234.199 24.858 233.353 25.068 232.597 25.488C231.841 25.908 231.247 26.49 230.815 27.234C230.395 27.966 230.185 28.788 230.185 29.7C230.185 30.612 230.395 31.44 230.815 32.184C231.247 32.916 231.841 33.492 232.597 33.912C233.353 34.332 234.199 34.542 235.135 34.542C236.539 34.542 237.721 34.038 238.681 33.03L239.851 34.164C239.275 34.812 238.573 35.304 237.745 35.64C236.929 35.976 236.029 36.144 235.045 36.144ZM246.523 30.402L244.219 32.742V36H242.419V23.4H244.219V30.438L251.059 23.4H253.111L247.729 29.07L253.453 36H251.347L246.523 30.402ZM262.693 24.966H258.373V23.4H268.795V24.966H264.475V36H262.693V24.966ZM276.267 36.144C274.995 36.144 273.849 35.868 272.829 35.316C271.809 34.752 271.005 33.978 270.417 32.994C269.841 32.01 269.553 30.912 269.553 29.7C269.553 28.488 269.841 27.39 270.417 26.406C271.005 25.422 271.809 24.654 272.829 24.102C273.849 23.538 274.995 23.256 276.267 23.256C277.527 23.256 278.667 23.538 279.687 24.102C280.707 24.654 281.505 25.422 282.081 26.406C282.657 27.378 282.945 28.476 282.945 29.7C282.945 30.924 282.657 32.028 282.081 33.012C281.505 33.984 280.707 34.752 279.687 35.316C278.667 35.868 277.527 36.144 276.267 36.144ZM276.267 34.542C277.191 34.542 278.019 34.332 278.751 33.912C279.495 33.492 280.077 32.916 280.497 32.184C280.929 31.44 281.145 30.612 281.145 29.7C281.145 28.788 280.929 27.966 280.497 27.234C280.077 26.49 279.495 25.908 278.751 25.488C278.019 25.068 277.191 24.858 276.267 24.858C275.343 24.858 274.503 25.068 273.747 25.488C273.003 25.908 272.415 26.49 271.983 27.234C271.563 27.966 271.353 28.788 271.353 29.7C271.353 30.612 271.563 31.44 271.983 32.184C272.415 32.916 273.003 33.492 273.747 33.912C274.503 34.332 275.343 34.542 276.267 34.542ZM296.165 36.144C294.905 36.144 293.765 35.868 292.745 35.316C291.737 34.752 290.945 33.984 290.369 33.012C289.793 32.028 289.505 30.924 289.505 29.7C289.505 28.476 289.793 27.378 290.369 26.406C290.945 25.422 291.743 24.654 292.763 24.102C293.783 23.538 294.923 23.256 296.183 23.256C297.167 23.256 298.067 23.424 298.883 23.76C299.699 24.084 300.395 24.57 300.971 25.218L299.801 26.352C298.853 25.356 297.671 24.858 296.255 24.858C295.319 24.858 294.473 25.068 293.717 25.488C292.961 25.908 292.367 26.49 291.935 27.234C291.515 27.966 291.305 28.788 291.305 29.7C291.305 30.612 291.515 31.44 291.935 32.184C292.367 32.916 292.961 33.492 293.717 33.912C294.473 34.332 295.319 34.542 296.255 34.542C297.659 34.542 298.841 34.038 299.801 33.03L300.971 34.164C300.395 34.812 299.693 35.304 298.865 35.64C298.049 35.976 297.149 36.144 296.165 36.144ZM311.268 32.85H304.572L303.186 36H301.332L307.038 23.4H308.82L314.544 36H312.654L311.268 32.85ZM310.638 31.41L307.92 25.236L305.202 31.41H310.638ZM324.847 36L322.129 32.13C321.793 32.154 321.529 32.166 321.337 32.166H318.223V36H316.423V23.4H321.337C322.969 23.4 324.253 23.79 325.189 24.57C326.125 25.35 326.593 26.424 326.593 27.792C326.593 28.764 326.353 29.592 325.873 30.276C325.393 30.96 324.709 31.458 323.821 31.77L326.809 36H324.847ZM321.283 30.636C322.423 30.636 323.293 30.39 323.893 29.898C324.493 29.406 324.793 28.704 324.793 27.792C324.793 26.88 324.493 26.184 323.893 25.704C323.293 25.212 322.423 24.966 321.283 24.966H318.223V30.636H321.283ZM331.828 24.966H327.508V23.4H337.93V24.966H333.61V36H331.828V24.966Z" fill="white"/>
</svg>
