<svg width="167" height="36" viewBox="0 0 167 36" fill="none" xmlns="http://www.w3.org/2000/svg">
<rect x="0.35" y="0.35" width="166.3" height="35.3" rx="8.65" stroke="black" stroke-width="0.7"/>
<path d="M30.88 18.224C31.616 18.384 32.1813 18.704 32.576 19.184C32.9813 19.6533 33.184 20.2613 33.184 21.008C33.184 21.968 32.8267 22.7093 32.112 23.232C31.408 23.744 30.3627 24 28.976 24H23.824V12.8H28.656C29.904 12.8 30.8693 13.0507 31.552 13.552C32.2453 14.0533 32.592 14.7627 32.592 15.68C32.592 16.2987 32.4373 16.8267 32.128 17.264C31.8293 17.6907 31.4133 18.0107 30.88 18.224ZM25.008 13.776V17.84H28.576C29.4827 17.84 30.1813 17.6693 30.672 17.328C31.1627 16.976 31.408 16.4693 31.408 15.808C31.408 15.1467 31.1627 14.6453 30.672 14.304C30.1813 13.952 29.4827 13.776 28.576 13.776H25.008ZM28.96 23.024C29.9627 23.024 30.72 22.8533 31.232 22.512C31.744 22.1707 32 21.6373 32 20.912C32 19.5147 30.9867 18.816 28.96 18.816H25.008V23.024H28.96ZM36.7345 17.232C37.0012 16.6667 37.3958 16.24 37.9185 15.952C38.4518 15.664 39.1078 15.52 39.8865 15.52V16.624L39.6145 16.608C38.7292 16.608 38.0358 16.88 37.5345 17.424C37.0332 17.968 36.7825 18.7307 36.7825 19.712V24H35.6465V15.584H36.7345V17.232ZM45.3053 24.08C44.4946 24.08 43.7639 23.8987 43.1133 23.536C42.4626 23.1627 41.9506 22.6507 41.5773 22C41.2039 21.3493 41.0173 20.6133 41.0173 19.792C41.0173 18.9707 41.2039 18.2347 41.5773 17.584C41.9506 16.9333 42.4626 16.4267 43.1133 16.064C43.7639 15.7013 44.4946 15.52 45.3053 15.52C46.1159 15.52 46.8466 15.7013 47.4973 16.064C48.1479 16.4267 48.6546 16.9333 49.0173 17.584C49.3906 18.2347 49.5773 18.9707 49.5773 19.792C49.5773 20.6133 49.3906 21.3493 49.0173 22C48.6546 22.6507 48.1479 23.1627 47.4973 23.536C46.8466 23.8987 46.1159 24.08 45.3053 24.08ZM45.3053 23.072C45.9026 23.072 46.4359 22.9387 46.9053 22.672C47.3853 22.3947 47.7586 22.0053 48.0253 21.504C48.2919 21.0027 48.4253 20.432 48.4253 19.792C48.4253 19.152 48.2919 18.5813 48.0253 18.08C47.7586 17.5787 47.3853 17.1947 46.9053 16.928C46.4359 16.6507 45.9026 16.512 45.3053 16.512C44.7079 16.512 44.1693 16.6507 43.6893 16.928C43.2199 17.1947 42.8466 17.5787 42.5693 18.08C42.3026 18.5813 42.1693 19.152 42.1693 19.792C42.1693 20.432 42.3026 21.0027 42.5693 21.504C42.8466 22.0053 43.2199 22.3947 43.6893 22.672C44.1693 22.9387 44.7079 23.072 45.3053 23.072ZM64.0141 15.584L60.8301 24H59.7581L57.1021 17.104L54.4461 24H53.3741L50.2061 15.584H51.2941L53.9341 22.736L56.6381 15.584H57.6141L60.3021 22.736L62.9741 15.584H64.0141ZM67.8869 24.08C67.2042 24.08 66.5482 23.984 65.9189 23.792C65.3002 23.5893 64.8149 23.3387 64.4629 23.04L64.9749 22.144C65.3269 22.4213 65.7695 22.6507 66.3029 22.832C66.8362 23.0027 67.3909 23.088 67.9669 23.088C68.7349 23.088 69.3002 22.9707 69.6629 22.736C70.0362 22.4907 70.2229 22.1493 70.2229 21.712C70.2229 21.4027 70.1215 21.1627 69.9189 20.992C69.7162 20.8107 69.4602 20.6773 69.1509 20.592C68.8415 20.496 68.4309 20.4053 67.9189 20.32C67.2362 20.192 66.6869 20.064 66.2709 19.936C65.8549 19.7973 65.4975 19.568 65.1989 19.248C64.9109 18.928 64.7669 18.4853 64.7669 17.92C64.7669 17.216 65.0602 16.64 65.6469 16.192C66.2335 15.744 67.0495 15.52 68.0949 15.52C68.6389 15.52 69.1829 15.5947 69.7269 15.744C70.2709 15.8827 70.7189 16.0693 71.0709 16.304L70.5749 17.216C69.8815 16.736 69.0549 16.496 68.0949 16.496C67.3695 16.496 66.8202 16.624 66.4469 16.88C66.0842 17.136 65.9029 17.472 65.9029 17.888C65.9029 18.208 66.0042 18.464 66.2069 18.656C66.4202 18.848 66.6815 18.992 66.9909 19.088C67.3002 19.1733 67.7269 19.264 68.2709 19.36C68.9429 19.488 69.4815 19.616 69.8869 19.744C70.2922 19.872 70.6389 20.0907 70.9269 20.4C71.2149 20.7093 71.3589 21.136 71.3589 21.68C71.3589 22.416 71.0495 23.0027 70.4309 23.44C69.8229 23.8667 68.9749 24.08 67.8869 24.08ZM80.787 20.144H73.747C73.811 21.0187 74.147 21.728 74.755 22.272C75.363 22.8053 76.131 23.072 77.059 23.072C77.5817 23.072 78.0617 22.9813 78.499 22.8C78.9363 22.608 79.315 22.3307 79.635 21.968L80.275 22.704C79.9017 23.152 79.4323 23.4933 78.867 23.728C78.3123 23.9627 77.699 24.08 77.027 24.08C76.163 24.08 75.395 23.8987 74.723 23.536C74.0617 23.1627 73.5443 22.6507 73.171 22C72.7977 21.3493 72.611 20.6133 72.611 19.792C72.611 18.9707 72.787 18.2347 73.139 17.584C73.5017 16.9333 73.9923 16.4267 74.611 16.064C75.2403 15.7013 75.9443 15.52 76.723 15.52C77.5017 15.52 78.2003 15.7013 78.819 16.064C79.4377 16.4267 79.923 16.9333 80.275 17.584C80.627 18.224 80.803 18.96 80.803 19.792L80.787 20.144ZM76.723 16.496C75.9123 16.496 75.2297 16.7573 74.675 17.28C74.131 17.792 73.8217 18.464 73.747 19.296H79.715C79.6403 18.464 79.3257 17.792 78.771 17.28C78.227 16.7573 77.5443 16.496 76.723 16.496ZM92.4068 24.096C91.2974 24.096 90.2948 23.8507 89.3988 23.36C88.5134 22.8693 87.8148 22.192 87.3028 21.328C86.8014 20.4533 86.5508 19.4773 86.5508 18.4C86.5508 17.3227 86.8014 16.352 87.3028 15.488C87.8148 14.6133 88.5188 13.9307 89.4148 13.44C90.3108 12.9493 91.3134 12.704 92.4228 12.704C93.2548 12.704 94.0228 12.8427 94.7268 13.12C95.4308 13.3973 96.0281 13.8027 96.5188 14.336L95.7668 15.088C94.8921 14.2027 93.7881 13.76 92.4548 13.76C91.5694 13.76 90.7641 13.9627 90.0388 14.368C89.3134 14.7733 88.7428 15.328 88.3268 16.032C87.9214 16.736 87.7188 17.5253 87.7188 18.4C87.7188 19.2747 87.9214 20.064 88.3268 20.768C88.7428 21.472 89.3134 22.0267 90.0388 22.432C90.7641 22.8373 91.5694 23.04 92.4548 23.04C93.7988 23.04 94.9028 22.592 95.7668 21.696L96.5188 22.448C96.0281 22.9813 95.4254 23.392 94.7108 23.68C94.0068 23.9573 93.2388 24.096 92.4068 24.096ZM101.622 15.52C102.72 15.52 103.563 15.7973 104.15 16.352C104.736 16.896 105.03 17.7067 105.03 18.784V24H103.942V22.688C103.686 23.1253 103.307 23.4667 102.806 23.712C102.315 23.9573 101.728 24.08 101.046 24.08C100.107 24.08 99.3604 23.856 98.8058 23.408C98.2511 22.96 97.9738 22.368 97.9738 21.632C97.9738 20.9173 98.2298 20.3413 98.7418 19.904C99.2644 19.4667 100.091 19.248 101.222 19.248H103.894V18.736C103.894 18.0107 103.691 17.4613 103.286 17.088C102.88 16.704 102.288 16.512 101.51 16.512C100.976 16.512 100.464 16.6027 99.9738 16.784C99.4831 16.9547 99.0618 17.1947 98.7098 17.504L98.1978 16.656C98.6244 16.2933 99.1364 16.016 99.7338 15.824C100.331 15.6213 100.96 15.52 101.622 15.52ZM101.222 23.184C101.862 23.184 102.411 23.04 102.87 22.752C103.328 22.4533 103.67 22.0267 103.894 21.472V20.096H101.254C99.8138 20.096 99.0938 20.5973 99.0938 21.6C99.0938 22.0907 99.2804 22.48 99.6538 22.768C100.027 23.0453 100.55 23.184 101.222 23.184ZM112.547 23.488C112.334 23.68 112.067 23.8293 111.747 23.936C111.438 24.032 111.113 24.08 110.771 24.08C109.982 24.08 109.374 23.8667 108.947 23.44C108.521 23.0133 108.307 22.4107 108.307 21.632V16.544H106.803V15.584H108.307V13.744H109.443V15.584H112.003V16.544H109.443V21.568C109.443 22.0693 109.566 22.4533 109.811 22.72C110.067 22.976 110.43 23.104 110.899 23.104C111.134 23.104 111.358 23.0667 111.571 22.992C111.795 22.9173 111.987 22.8107 112.147 22.672L112.547 23.488ZM117.559 15.52C118.658 15.52 119.501 15.7973 120.087 16.352C120.674 16.896 120.967 17.7067 120.967 18.784V24H119.879V22.688C119.623 23.1253 119.245 23.4667 118.743 23.712C118.253 23.9573 117.666 24.08 116.983 24.08C116.045 24.08 115.298 23.856 114.743 23.408C114.189 22.96 113.911 22.368 113.911 21.632C113.911 20.9173 114.167 20.3413 114.679 19.904C115.202 19.4667 116.029 19.248 117.159 19.248H119.831V18.736C119.831 18.0107 119.629 17.4613 119.223 17.088C118.818 16.704 118.226 16.512 117.447 16.512C116.914 16.512 116.402 16.6027 115.911 16.784C115.421 16.9547 114.999 17.1947 114.647 17.504L114.135 16.656C114.562 16.2933 115.074 16.016 115.671 15.824C116.269 15.6213 116.898 15.52 117.559 15.52ZM117.159 23.184C117.799 23.184 118.349 23.04 118.807 22.752C119.266 22.4533 119.607 22.0267 119.831 21.472V20.096H117.191C115.751 20.096 115.031 20.5973 115.031 21.6C115.031 22.0907 115.218 22.48 115.591 22.768C115.965 23.0453 116.487 23.184 117.159 23.184ZM124.053 12.128H125.189V24H124.053V12.128ZM131.79 24.08C130.979 24.08 130.248 23.8987 129.598 23.536C128.947 23.1627 128.435 22.6507 128.062 22C127.688 21.3493 127.502 20.6133 127.502 19.792C127.502 18.9707 127.688 18.2347 128.062 17.584C128.435 16.9333 128.947 16.4267 129.598 16.064C130.248 15.7013 130.979 15.52 131.79 15.52C132.6 15.52 133.331 15.7013 133.982 16.064C134.632 16.4267 135.139 16.9333 135.502 17.584C135.875 18.2347 136.062 18.9707 136.062 19.792C136.062 20.6133 135.875 21.3493 135.502 22C135.139 22.6507 134.632 23.1627 133.982 23.536C133.331 23.8987 132.6 24.08 131.79 24.08ZM131.79 23.072C132.387 23.072 132.92 22.9387 133.39 22.672C133.87 22.3947 134.243 22.0053 134.51 21.504C134.776 21.0027 134.91 20.432 134.91 19.792C134.91 19.152 134.776 18.5813 134.51 18.08C134.243 17.5787 133.87 17.1947 133.39 16.928C132.92 16.6507 132.387 16.512 131.79 16.512C131.192 16.512 130.654 16.6507 130.174 16.928C129.704 17.1947 129.331 17.5787 129.054 18.08C128.787 18.5813 128.654 19.152 128.654 19.792C128.654 20.432 128.787 21.0027 129.054 21.504C129.331 22.0053 129.704 22.3947 130.174 22.672C130.654 22.9387 131.192 23.072 131.79 23.072ZM146.173 15.584V22.976C146.173 24.4053 145.821 25.4613 145.117 26.144C144.424 26.8373 143.373 27.184 141.965 27.184C141.186 27.184 140.445 27.0667 139.741 26.832C139.048 26.608 138.482 26.2933 138.045 25.888L138.621 25.024C139.026 25.3867 139.517 25.6693 140.093 25.872C140.68 26.0747 141.293 26.176 141.933 26.176C143 26.176 143.784 25.9253 144.285 25.424C144.786 24.9333 145.037 24.1653 145.037 23.12V22.048C144.685 22.5813 144.221 22.9867 143.645 23.264C143.08 23.5413 142.45 23.68 141.757 23.68C140.968 23.68 140.248 23.5093 139.597 23.168C138.957 22.816 138.45 22.3307 138.077 21.712C137.714 21.0827 137.533 20.3733 137.533 19.584C137.533 18.7947 137.714 18.0907 138.077 17.472C138.45 16.8533 138.957 16.3733 139.597 16.032C140.237 15.6907 140.957 15.52 141.757 15.52C142.472 15.52 143.117 15.664 143.693 15.952C144.269 16.24 144.733 16.656 145.085 17.2V15.584H146.173ZM141.869 22.672C142.477 22.672 143.026 22.544 143.517 22.288C144.008 22.0213 144.386 21.6533 144.653 21.184C144.93 20.7147 145.069 20.1813 145.069 19.584C145.069 18.9867 144.93 18.4587 144.653 18C144.386 17.5307 144.008 17.168 143.517 16.912C143.037 16.6453 142.488 16.512 141.869 16.512C141.261 16.512 140.712 16.64 140.221 16.896C139.741 17.152 139.362 17.5147 139.085 17.984C138.818 18.4533 138.685 18.9867 138.685 19.584C138.685 20.1813 138.818 20.7147 139.085 21.184C139.362 21.6533 139.741 22.0213 140.221 22.288C140.712 22.544 141.261 22.672 141.869 22.672Z" fill="black"/>
</svg>
