<svg width="111" height="44" viewBox="0 0 111 44" fill="none" xmlns="http://www.w3.org/2000/svg">
<rect x="110.5" y="43.5" width="110" height="43" rx="9.5" transform="rotate(-180 110.5 43.5)" stroke="black"/>
<path d="M28.524 29.108C27.276 29.108 26.148 28.832 25.14 28.28C24.144 27.728 23.358 26.966 22.782 25.994C22.218 25.01 21.936 23.912 21.936 22.7C21.936 21.488 22.218 20.396 22.782 19.424C23.358 18.44 24.15 17.672 25.158 17.12C26.166 16.568 27.294 16.292 28.542 16.292C29.478 16.292 30.342 16.448 31.134 16.76C31.926 17.072 32.598 17.528 33.15 18.128L32.304 18.974C31.32 17.978 30.078 17.48 28.578 17.48C27.582 17.48 26.676 17.708 25.86 18.164C25.044 18.62 24.402 19.244 23.934 20.036C23.478 20.828 23.25 21.716 23.25 22.7C23.25 23.684 23.478 24.572 23.934 25.364C24.402 26.156 25.044 26.78 25.86 27.236C26.676 27.692 27.582 27.92 28.578 27.92C30.09 27.92 31.332 27.416 32.304 26.408L33.15 27.254C32.598 27.854 31.92 28.316 31.116 28.64C30.324 28.952 29.46 29.108 28.524 29.108ZM35.9895 16.4H37.3215V27.848H44.3775V29H35.9895V16.4ZM55.4991 27.848V29H46.5891V16.4H55.2291V17.552H47.9211V22.034H54.4371V23.168H47.9211V27.848H55.4991ZM66.5321 25.634H59.5121L58.0001 29H56.6141L62.3741 16.4H63.6881L69.4481 29H68.0441L66.5321 25.634ZM66.0461 24.554L63.0221 17.786L59.9981 24.554H66.0461ZM80.1365 29L77.2565 24.95C76.9325 24.986 76.5965 25.004 76.2485 25.004H72.8645V29H71.5325V16.4H76.2485C77.8565 16.4 79.1165 16.784 80.0285 17.552C80.9405 18.32 81.3965 19.376 81.3965 20.72C81.3965 21.704 81.1445 22.538 80.6405 23.222C80.1485 23.894 79.4405 24.38 78.5165 24.68L81.5945 29H80.1365ZM76.2125 23.87C77.4605 23.87 78.4145 23.594 79.0745 23.042C79.7345 22.49 80.0645 21.716 80.0645 20.72C80.0645 19.7 79.7345 18.92 79.0745 18.38C78.4145 17.828 77.4605 17.552 76.2125 17.552H72.8645V23.87H76.2125Z" fill="black"/>
</svg>
