<svg width="386" height="70" viewBox="0 0 386 70" fill="none" xmlns="http://www.w3.org/2000/svg">
<rect width="386" height="70" rx="12" fill="#01215C"/>
<path d="M348.824 35.9167L337.666 35.9167L337.666 34.0833L348.824 34.0833L343.907 29.1663L345.203 27.8702L352.333 35L345.203 42.1298L343.907 40.8337L348.824 35.9167Z" fill="white"/>
<path d="M37.524 41.144C36.264 41.144 35.124 40.868 34.104 40.316C33.096 39.752 32.304 38.984 31.728 38.012C31.152 37.028 30.864 35.924 30.864 34.7C30.864 33.476 31.152 32.378 31.728 31.406C32.304 30.422 33.102 29.654 34.122 29.102C35.142 28.538 36.282 28.256 37.542 28.256C38.526 28.256 39.426 28.424 40.242 28.76C41.058 29.084 41.754 29.57 42.33 30.218L41.16 31.352C40.212 30.356 39.03 29.858 37.614 29.858C36.678 29.858 35.832 30.068 35.076 30.488C34.32 30.908 33.726 31.49 33.294 32.234C32.874 32.966 32.664 33.788 32.664 34.7C32.664 35.612 32.874 36.44 33.294 37.184C33.726 37.916 34.32 38.492 35.076 38.912C35.832 39.332 36.678 39.542 37.614 39.542C39.018 39.542 40.2 39.038 41.16 38.03L42.33 39.164C41.754 39.812 41.052 40.304 40.224 40.64C39.408 40.976 38.508 41.144 37.524 41.144ZM50.3221 41.144C49.0501 41.144 47.9041 40.868 46.8841 40.316C45.8641 39.752 45.0601 38.978 44.4721 37.994C43.8961 37.01 43.6081 35.912 43.6081 34.7C43.6081 33.488 43.8961 32.39 44.4721 31.406C45.0601 30.422 45.8641 29.654 46.8841 29.102C47.9041 28.538 49.0501 28.256 50.3221 28.256C51.5821 28.256 52.7221 28.538 53.7421 29.102C54.7621 29.654 55.5601 30.422 56.1361 31.406C56.7121 32.378 57.0001 33.476 57.0001 34.7C57.0001 35.924 56.7121 37.028 56.1361 38.012C55.5601 38.984 54.7621 39.752 53.7421 40.316C52.7221 40.868 51.5821 41.144 50.3221 41.144ZM50.3221 39.542C51.2461 39.542 52.0741 39.332 52.8061 38.912C53.5501 38.492 54.1321 37.916 54.5521 37.184C54.9841 36.44 55.2001 35.612 55.2001 34.7C55.2001 33.788 54.9841 32.966 54.5521 32.234C54.1321 31.49 53.5501 30.908 52.8061 30.488C52.0741 30.068 51.2461 29.858 50.3221 29.858C49.3981 29.858 48.5581 30.068 47.8021 30.488C47.0581 30.908 46.4701 31.49 46.0381 32.234C45.6181 32.966 45.4081 33.788 45.4081 34.7C45.4081 35.612 45.6181 36.44 46.0381 37.184C46.4701 37.916 47.0581 38.492 47.8021 38.912C48.5581 39.332 49.3981 39.542 50.3221 39.542ZM70.5873 28.4V41H69.1113L61.5513 31.604V41H59.7513V28.4H61.2273L68.7873 37.796V28.4H70.5873ZM76.8608 29.966H72.5408V28.4H82.9628V29.966H78.6428V41H76.8608V29.966ZM84.9232 28.4H86.7232V41H84.9232V28.4ZM101.331 28.4V41H99.8555L92.2955 31.604V41H90.4955V28.4H91.9715L99.5315 37.796V28.4H101.331ZM110.323 41.144C108.643 41.144 107.335 40.664 106.399 39.704C105.463 38.744 104.995 37.364 104.995 35.564V28.4H106.795V35.492C106.795 38.192 107.977 39.542 110.341 39.542C111.493 39.542 112.375 39.212 112.987 38.552C113.599 37.88 113.905 36.86 113.905 35.492V28.4H115.651V35.564C115.651 37.376 115.183 38.762 114.247 39.722C113.311 40.67 112.003 41.144 110.323 41.144ZM128.485 39.434V41H119.341V28.4H128.233V29.966H121.141V33.836H127.459V35.366H121.141V39.434H128.485ZM141.868 41.144C140.608 41.144 139.468 40.868 138.448 40.316C137.44 39.752 136.648 38.984 136.072 38.012C135.496 37.028 135.208 35.924 135.208 34.7C135.208 33.476 135.496 32.378 136.072 31.406C136.648 30.422 137.446 29.654 138.466 29.102C139.486 28.538 140.626 28.256 141.886 28.256C142.87 28.256 143.77 28.424 144.586 28.76C145.402 29.084 146.098 29.57 146.674 30.218L145.504 31.352C144.556 30.356 143.374 29.858 141.958 29.858C141.022 29.858 140.176 30.068 139.42 30.488C138.664 30.908 138.07 31.49 137.638 32.234C137.218 32.966 137.008 33.788 137.008 34.7C137.008 35.612 137.218 36.44 137.638 37.184C138.07 37.916 138.664 38.492 139.42 38.912C140.176 39.332 141.022 39.542 141.958 39.542C143.362 39.542 144.544 39.038 145.504 38.03L146.674 39.164C146.098 39.812 145.396 40.304 144.568 40.64C143.752 40.976 142.852 41.144 141.868 41.144ZM160.078 28.4V41H158.278V35.384H151.042V41H149.242V28.4H151.042V33.818H158.278V28.4H160.078ZM172.993 39.434V41H163.849V28.4H172.741V29.966H165.649V33.836H171.967V35.366H165.649V39.434H172.993ZM181.489 41.144C180.229 41.144 179.089 40.868 178.069 40.316C177.061 39.752 176.269 38.984 175.693 38.012C175.117 37.028 174.829 35.924 174.829 34.7C174.829 33.476 175.117 32.378 175.693 31.406C176.269 30.422 177.067 29.654 178.087 29.102C179.107 28.538 180.247 28.256 181.507 28.256C182.491 28.256 183.391 28.424 184.207 28.76C185.023 29.084 185.719 29.57 186.295 30.218L185.125 31.352C184.177 30.356 182.995 29.858 181.579 29.858C180.643 29.858 179.797 30.068 179.041 30.488C178.285 30.908 177.691 31.49 177.259 32.234C176.839 32.966 176.629 33.788 176.629 34.7C176.629 35.612 176.839 36.44 177.259 37.184C177.691 37.916 178.285 38.492 179.041 38.912C179.797 39.332 180.643 39.542 181.579 39.542C182.983 39.542 184.165 39.038 185.125 38.03L186.295 39.164C185.719 39.812 185.017 40.304 184.189 40.64C183.373 40.976 182.473 41.144 181.489 41.144ZM192.967 35.402L190.663 37.742V41H188.863V28.4H190.663V35.438L197.503 28.4H199.555L194.173 34.07L199.897 41H197.791L192.967 35.402ZM207.031 41.144C205.759 41.144 204.613 40.868 203.593 40.316C202.573 39.752 201.769 38.978 201.181 37.994C200.605 37.01 200.317 35.912 200.317 34.7C200.317 33.488 200.605 32.39 201.181 31.406C201.769 30.422 202.573 29.654 203.593 29.102C204.613 28.538 205.759 28.256 207.031 28.256C208.291 28.256 209.431 28.538 210.451 29.102C211.471 29.654 212.269 30.422 212.845 31.406C213.421 32.378 213.709 33.476 213.709 34.7C213.709 35.924 213.421 37.028 212.845 38.012C212.269 38.984 211.471 39.752 210.451 40.316C209.431 40.868 208.291 41.144 207.031 41.144ZM207.031 39.542C207.955 39.542 208.783 39.332 209.515 38.912C210.259 38.492 210.841 37.916 211.261 37.184C211.693 36.44 211.909 35.612 211.909 34.7C211.909 33.788 211.693 32.966 211.261 32.234C210.841 31.49 210.259 30.908 209.515 30.488C208.783 30.068 207.955 29.858 207.031 29.858C206.107 29.858 205.267 30.068 204.511 30.488C203.767 30.908 203.179 31.49 202.747 32.234C202.327 32.966 202.117 33.788 202.117 34.7C202.117 35.612 202.327 36.44 202.747 37.184C203.179 37.916 203.767 38.492 204.511 38.912C205.267 39.332 206.107 39.542 207.031 39.542ZM221.68 41.144C220 41.144 218.692 40.664 217.756 39.704C216.82 38.744 216.352 37.364 216.352 35.564V28.4H218.152V35.492C218.152 38.192 219.334 39.542 221.698 39.542C222.85 39.542 223.732 39.212 224.344 38.552C224.956 37.88 225.262 36.86 225.262 35.492V28.4H227.008V35.564C227.008 37.376 226.54 38.762 225.604 39.722C224.668 40.67 223.36 41.144 221.68 41.144ZM232.972 29.966H228.652V28.4H239.074V29.966H234.754V41H232.972V29.966Z" fill="white"/>
</svg>
