<svg width="312" height="60" viewBox="0 0 312 60" fill="none" xmlns="http://www.w3.org/2000/svg">
<rect width="312" height="60" rx="12" fill="#01215C"/>
<path d="M274.824 30.9167L263.666 30.9167L263.666 29.0833L274.824 29.0833L269.907 24.1663L271.203 22.8702L278.333 30L271.203 37.1298L269.907 35.8337L274.824 30.9167Z" fill="white"/>
<path d="M39.562 36.144C38.614 36.144 37.696 36 36.808 35.712C35.932 35.412 35.242 35.028 34.738 34.56L35.404 33.156C35.884 33.588 36.496 33.942 37.24 34.218C37.996 34.482 38.77 34.614 39.562 34.614C40.606 34.614 41.386 34.44 41.902 34.092C42.418 33.732 42.676 33.258 42.676 32.67C42.676 32.238 42.532 31.89 42.244 31.626C41.968 31.35 41.62 31.14 41.2 30.996C40.792 30.852 40.21 30.69 39.454 30.51C38.506 30.282 37.738 30.054 37.15 29.826C36.574 29.598 36.076 29.25 35.656 28.782C35.248 28.302 35.044 27.66 35.044 26.856C35.044 26.184 35.218 25.578 35.566 25.038C35.926 24.498 36.466 24.066 37.186 23.742C37.906 23.418 38.8 23.256 39.868 23.256C40.612 23.256 41.344 23.352 42.064 23.544C42.784 23.736 43.402 24.012 43.918 24.372L43.324 25.812C42.796 25.476 42.232 25.224 41.632 25.056C41.032 24.876 40.444 24.786 39.868 24.786C38.848 24.786 38.08 24.972 37.564 25.344C37.06 25.716 36.808 26.196 36.808 26.784C36.808 27.216 36.952 27.57 37.24 27.846C37.528 28.11 37.882 28.32 38.302 28.476C38.734 28.62 39.316 28.776 40.048 28.944C40.996 29.172 41.758 29.4 42.334 29.628C42.91 29.856 43.402 30.204 43.81 30.672C44.23 31.14 44.44 31.77 44.44 32.562C44.44 33.222 44.26 33.828 43.9 34.38C43.54 34.92 42.994 35.352 42.262 35.676C41.53 35.988 40.63 36.144 39.562 36.144ZM55.0977 32.85H48.4017L47.0157 36H45.1617L50.8677 23.4H52.6497L58.3737 36H56.4837L55.0977 32.85ZM54.4677 31.41L51.7497 25.236L49.0317 31.41H54.4677ZM70.5293 23.4L65.0033 36H63.2213L57.6773 23.4H59.6213L64.1573 33.75L68.7293 23.4H70.5293ZM81.2801 34.434V36H72.1361V23.4H81.0281V24.966H73.9361V28.836H80.2541V30.366H73.9361V34.434H81.2801ZM98.2447 36.198L96.5707 34.524C95.4547 35.604 94.0507 36.144 92.3587 36.144C91.5187 36.144 90.7627 36.006 90.0907 35.73C89.4187 35.454 88.8907 35.07 88.5067 34.578C88.1347 34.074 87.9487 33.504 87.9487 32.868C87.9487 32.1 88.1827 31.422 88.6507 30.834C89.1307 30.234 89.9167 29.622 91.0087 28.998C90.4567 28.446 90.0667 27.948 89.8387 27.504C89.6107 27.06 89.4967 26.598 89.4967 26.118C89.4967 25.266 89.8027 24.582 90.4147 24.066C91.0387 23.55 91.8667 23.292 92.8987 23.292C93.8587 23.292 94.6207 23.526 95.1847 23.994C95.7487 24.462 96.0307 25.104 96.0307 25.92C96.0307 26.556 95.8207 27.126 95.4007 27.63C94.9927 28.134 94.3087 28.662 93.3487 29.214L96.4627 32.31C96.8227 31.626 97.0807 30.864 97.2367 30.024L98.6227 30.474C98.4067 31.578 98.0407 32.538 97.5247 33.354L99.2167 35.046L98.2447 36.198ZM92.8987 24.552C92.3347 24.552 91.8907 24.696 91.5667 24.984C91.2547 25.26 91.0987 25.626 91.0987 26.082C91.0987 26.406 91.1827 26.718 91.3507 27.018C91.5307 27.318 91.8727 27.726 92.3767 28.242C93.2047 27.774 93.7747 27.372 94.0867 27.036C94.4107 26.7 94.5727 26.334 94.5727 25.938C94.5727 25.518 94.4227 25.182 94.1227 24.93C93.8347 24.678 93.4267 24.552 92.8987 24.552ZM92.4667 34.704C93.7147 34.704 94.7407 34.308 95.5447 33.516L91.9627 29.952C91.0987 30.432 90.4927 30.882 90.1447 31.302C89.8087 31.71 89.6407 32.172 89.6407 32.688C89.6407 33.288 89.8987 33.774 90.4147 34.146C90.9427 34.518 91.6267 34.704 92.4667 34.704ZM111.837 36.144C110.577 36.144 109.437 35.868 108.417 35.316C107.409 34.752 106.617 33.984 106.041 33.012C105.465 32.028 105.177 30.924 105.177 29.7C105.177 28.476 105.465 27.378 106.041 26.406C106.617 25.422 107.415 24.654 108.435 24.102C109.455 23.538 110.595 23.256 111.855 23.256C112.839 23.256 113.739 23.424 114.555 23.76C115.371 24.084 116.067 24.57 116.643 25.218L115.473 26.352C114.525 25.356 113.343 24.858 111.927 24.858C110.991 24.858 110.145 25.068 109.389 25.488C108.633 25.908 108.039 26.49 107.607 27.234C107.187 27.966 106.977 28.788 106.977 29.7C106.977 30.612 107.187 31.44 107.607 32.184C108.039 32.916 108.633 33.492 109.389 33.912C110.145 34.332 110.991 34.542 111.927 34.542C113.331 34.542 114.513 34.038 115.473 33.03L116.643 34.164C116.067 34.812 115.365 35.304 114.537 35.64C113.721 35.976 112.821 36.144 111.837 36.144ZM124.635 36.144C123.363 36.144 122.217 35.868 121.197 35.316C120.177 34.752 119.373 33.978 118.785 32.994C118.209 32.01 117.921 30.912 117.921 29.7C117.921 28.488 118.209 27.39 118.785 26.406C119.373 25.422 120.177 24.654 121.197 24.102C122.217 23.538 123.363 23.256 124.635 23.256C125.895 23.256 127.035 23.538 128.055 24.102C129.075 24.654 129.873 25.422 130.449 26.406C131.025 27.378 131.313 28.476 131.313 29.7C131.313 30.924 131.025 32.028 130.449 33.012C129.873 33.984 129.075 34.752 128.055 35.316C127.035 35.868 125.895 36.144 124.635 36.144ZM124.635 34.542C125.559 34.542 126.387 34.332 127.119 33.912C127.863 33.492 128.445 32.916 128.865 32.184C129.297 31.44 129.513 30.612 129.513 29.7C129.513 28.788 129.297 27.966 128.865 27.234C128.445 26.49 127.863 25.908 127.119 25.488C126.387 25.068 125.559 24.858 124.635 24.858C123.711 24.858 122.871 25.068 122.115 25.488C121.371 25.908 120.783 26.49 120.351 27.234C119.931 27.966 119.721 28.788 119.721 29.7C119.721 30.612 119.931 31.44 120.351 32.184C120.783 32.916 121.371 33.492 122.115 33.912C122.871 34.332 123.711 34.542 124.635 34.542ZM144.9 23.4V36H143.424L135.864 26.604V36H134.064V23.4H135.54L143.1 32.796V23.4H144.9ZM151.173 24.966H146.853V23.4H157.275V24.966H152.955V36H151.173V24.966ZM159.236 23.4H161.036V36H159.236V23.4ZM175.644 23.4V36H174.168L166.608 26.604V36H164.808V23.4H166.284L173.844 32.796V23.4H175.644ZM184.635 36.144C182.955 36.144 181.647 35.664 180.711 34.704C179.775 33.744 179.307 32.364 179.307 30.564V23.4H181.107V30.492C181.107 33.192 182.289 34.542 184.653 34.542C185.805 34.542 186.687 34.212 187.299 33.552C187.911 32.88 188.217 31.86 188.217 30.492V23.4H189.963V30.564C189.963 32.376 189.495 33.762 188.559 34.722C187.623 35.67 186.315 36.144 184.635 36.144ZM202.798 34.434V36H193.654V23.4H202.546V24.966H195.454V28.836H201.772V30.366H195.454V34.434H202.798Z" fill="white"/>
</svg>
