<svg width="368" height="60" viewBox="0 0 368 60" fill="none" xmlns="http://www.w3.org/2000/svg">
<rect width="368" height="60" rx="12" fill="#01215C"/>
<path d="M330.825 30.9167L319.667 30.9167L319.667 29.0833L330.825 29.0833L325.908 24.1663L327.204 22.8702L334.334 30L327.204 37.1298L325.908 35.8337L330.825 30.9167Z" fill="white"/>
<path d="M40.62 29.628H42.348V34.542C41.724 35.058 40.998 35.454 40.17 35.73C39.342 36.006 38.478 36.144 37.578 36.144C36.306 36.144 35.16 35.868 34.14 35.316C33.12 34.752 32.316 33.984 31.728 33.012C31.152 32.028 30.864 30.924 30.864 29.7C30.864 28.476 31.152 27.372 31.728 26.388C32.316 25.404 33.12 24.636 34.14 24.084C35.172 23.532 36.33 23.256 37.614 23.256C38.622 23.256 39.534 23.424 40.35 23.76C41.178 24.084 41.88 24.564 42.456 25.2L41.34 26.316C40.332 25.344 39.114 24.858 37.686 24.858C36.726 24.858 35.862 25.068 35.094 25.488C34.338 25.896 33.744 26.472 33.312 27.216C32.88 27.948 32.664 28.776 32.664 29.7C32.664 30.612 32.88 31.44 33.312 32.184C33.744 32.916 34.338 33.492 35.094 33.912C35.862 34.332 36.72 34.542 37.668 34.542C38.796 34.542 39.78 34.272 40.62 33.732V29.628ZM54.9383 34.434V36H45.7943V23.4H54.6863V24.966H47.5943V28.836H53.9123V30.366H47.5943V34.434H54.9383ZM68.6889 23.4V36H67.2129L59.6529 26.604V36H57.8529V23.4H59.3289L66.8889 32.796V23.4H68.6889ZM81.6043 34.434V36H72.4603V23.4H81.3523V24.966H74.2603V28.836H80.5783V30.366H74.2603V34.434H81.6043ZM92.9429 36L90.2249 32.13C89.8889 32.154 89.6249 32.166 89.4329 32.166H86.3189V36H84.5189V23.4H89.4329C91.0649 23.4 92.3489 23.79 93.2849 24.57C94.2209 25.35 94.6889 26.424 94.6889 27.792C94.6889 28.764 94.4489 29.592 93.9689 30.276C93.4889 30.96 92.8049 31.458 91.9169 31.77L94.9049 36H92.9429ZM89.3789 30.636C90.5189 30.636 91.3889 30.39 91.9889 29.898C92.5889 29.406 92.8889 28.704 92.8889 27.792C92.8889 26.88 92.5889 26.184 91.9889 25.704C91.3889 25.212 90.5189 24.966 89.3789 24.966H86.3189V30.636H89.3789ZM105.625 32.85H98.929L97.543 36H95.689L101.395 23.4H103.177L108.901 36H107.011L105.625 32.85ZM104.995 31.41L102.277 25.236L99.559 31.41H104.995ZM112.65 24.966H108.33V23.4H118.752V24.966H114.432V36H112.65V24.966ZM129.856 34.434V36H120.712V23.4H129.604V24.966H122.512V28.836H128.83V30.366H122.512V34.434H129.856ZM137.605 23.4H139.405V36H137.605V23.4ZM154.013 23.4V36H152.537L144.977 26.604V36H143.177V23.4H144.653L152.213 32.796V23.4H154.013ZM168.605 23.4L163.079 36H161.297L155.753 23.4H157.697L162.233 33.75L166.805 23.4H168.605ZM175.76 36.144C174.488 36.144 173.342 35.868 172.322 35.316C171.302 34.752 170.498 33.978 169.91 32.994C169.334 32.01 169.046 30.912 169.046 29.7C169.046 28.488 169.334 27.39 169.91 26.406C170.498 25.422 171.302 24.654 172.322 24.102C173.342 23.538 174.488 23.256 175.76 23.256C177.02 23.256 178.16 23.538 179.18 24.102C180.2 24.654 180.998 25.422 181.574 26.406C182.15 27.378 182.438 28.476 182.438 29.7C182.438 30.924 182.15 32.028 181.574 33.012C180.998 33.984 180.2 34.752 179.18 35.316C178.16 35.868 177.02 36.144 175.76 36.144ZM175.76 34.542C176.684 34.542 177.512 34.332 178.244 33.912C178.988 33.492 179.57 32.916 179.99 32.184C180.422 31.44 180.638 30.612 180.638 29.7C180.638 28.788 180.422 27.966 179.99 27.234C179.57 26.49 178.988 25.908 178.244 25.488C177.512 25.068 176.684 24.858 175.76 24.858C174.836 24.858 173.996 25.068 173.24 25.488C172.496 25.908 171.908 26.49 171.476 27.234C171.056 27.966 170.846 28.788 170.846 29.7C170.846 30.612 171.056 31.44 171.476 32.184C171.908 32.916 172.496 33.492 173.24 33.912C173.996 34.332 174.836 34.542 175.76 34.542ZM185.189 23.4H186.989V36H185.189V23.4ZM196.395 36.144C195.135 36.144 193.995 35.868 192.975 35.316C191.967 34.752 191.175 33.984 190.599 33.012C190.023 32.028 189.735 30.924 189.735 29.7C189.735 28.476 190.023 27.378 190.599 26.406C191.175 25.422 191.973 24.654 192.993 24.102C194.013 23.538 195.153 23.256 196.413 23.256C197.397 23.256 198.297 23.424 199.113 23.76C199.929 24.084 200.625 24.57 201.201 25.218L200.031 26.352C199.083 25.356 197.901 24.858 196.485 24.858C195.549 24.858 194.703 25.068 193.947 25.488C193.191 25.908 192.597 26.49 192.165 27.234C191.745 27.966 191.535 28.788 191.535 29.7C191.535 30.612 191.745 31.44 192.165 32.184C192.597 32.916 193.191 33.492 193.947 33.912C194.703 34.332 195.549 34.542 196.485 34.542C197.889 34.542 199.071 34.038 200.031 33.03L201.201 34.164C200.625 34.812 199.923 35.304 199.095 35.64C198.279 35.976 197.379 36.144 196.395 36.144ZM212.913 34.434V36H203.769V23.4H212.661V24.966H205.569V28.836H211.887V30.366H205.569V34.434H212.913Z" fill="white"/>
</svg>
