<svg width="44" height="44" viewBox="0 0 44 44" fill="none" xmlns="http://www.w3.org/2000/svg">
<rect width="44" height="44" rx="10" fill="black" fill-opacity="0.05"/>
<path d="M26.583 13.75H30.2497C30.4928 13.75 30.7259 13.8466 30.8979 14.0185C31.0698 14.1904 31.1663 14.4235 31.1663 14.6667V29.3333C31.1663 29.5764 31.0698 29.8096 30.8979 29.9815C30.7259 30.1534 30.4928 30.25 30.2497 30.25H13.7497C13.5066 30.25 13.2734 30.1534 13.1015 29.9815C12.9296 29.8096 12.833 29.5764 12.833 29.3333V14.6667C12.833 14.4235 12.9296 14.1904 13.1015 14.0185C13.2734 13.8466 13.5066 13.75 13.7497 13.75H17.4163V11.9167H19.2497V13.75H24.7497V11.9167H26.583V13.75ZM29.333 19.25V15.5833H26.583V17.4167H24.7497V15.5833H19.2497V17.4167H17.4163V15.5833H14.6663V19.25H29.333ZM29.333 21.0833H14.6663V28.4167H29.333V21.0833ZM16.4997 22.9167H21.083V26.5833H16.4997V22.9167Z" fill="black" fill-opacity="0.7"/>
</svg>
