<svg width="20" height="20" viewBox="0 0 20 20" fill="none" xmlns="http://www.w3.org/2000/svg">
<path d="M10.0006 11.6667V13.3333C8.67457 13.3333 7.4028 13.8601 6.46512 14.7978C5.52744 15.7355 5.00065 17.0072 5.00065 18.3333H3.33398C3.33398 16.5652 4.03636 14.8695 5.28661 13.6193C6.53685 12.369 8.23254 11.6667 10.0006 11.6667ZM10.0006 10.8333C7.23815 10.8333 5.00065 8.59583 5.00065 5.83333C5.00065 3.07084 7.23815 0.833336 10.0006 0.833336C12.7631 0.833336 15.0006 3.07084 15.0006 5.83333C15.0006 8.59583 12.7631 10.8333 10.0006 10.8333ZM10.0006 9.16667C11.8423 9.16667 13.334 7.675 13.334 5.83333C13.334 3.99167 11.8423 2.5 10.0006 2.5C8.15898 2.5 6.66732 3.99167 6.66732 5.83333C6.66732 7.675 8.15898 9.16667 10.0006 9.16667ZM17.8723 16.6933L19.1256 17.9467L17.9473 19.125L16.694 17.8717C15.9951 18.2837 15.1699 18.4268 14.3731 18.274C13.5763 18.1212 12.8626 17.683 12.3658 17.0416C11.8689 16.4002 11.6231 15.5996 11.6743 14.7899C11.7255 13.9802 12.0702 13.217 12.6439 12.6433C13.2176 12.0696 13.9809 11.7248 14.7906 11.6736C15.6003 11.6224 16.4008 11.8683 17.0422 12.3651C17.6836 12.862 18.1218 13.5757 18.2746 14.3725C18.4274 15.1693 18.2844 15.9945 17.8723 16.6933ZM15.0006 16.6667C15.4427 16.6667 15.8666 16.4911 16.1792 16.1785C16.4917 15.866 16.6673 15.442 16.6673 15C16.6673 14.558 16.4917 14.1341 16.1792 13.8215C15.8666 13.5089 15.4427 13.3333 15.0006 13.3333C14.5586 13.3333 14.1347 13.5089 13.8221 13.8215C13.5096 14.1341 13.334 14.558 13.334 15C13.334 15.442 13.5096 15.866 13.8221 16.1785C14.1347 16.4911 14.5586 16.6667 15.0006 16.6667Z" fill="black"/>
</svg>
