<svg width="368" height="60" viewBox="0 0 368 60" fill="none" xmlns="http://www.w3.org/2000/svg">
<rect width="368" height="60" rx="12" fill="#01215C"/>
<path d="M330.824 30.9167L319.666 30.9167L319.666 29.0833L330.824 29.0833L325.907 24.1663L327.203 22.8702L334.333 30L327.203 37.1298L325.907 35.8337L330.824 30.9167Z" fill="white"/>
<path d="M37.524 36.144C36.264 36.144 35.124 35.868 34.104 35.316C33.096 34.752 32.304 33.984 31.728 33.012C31.152 32.028 30.864 30.924 30.864 29.7C30.864 28.476 31.152 27.378 31.728 26.406C32.304 25.422 33.102 24.654 34.122 24.102C35.142 23.538 36.282 23.256 37.542 23.256C38.526 23.256 39.426 23.424 40.242 23.76C41.058 24.084 41.754 24.57 42.33 25.218L41.16 26.352C40.212 25.356 39.03 24.858 37.614 24.858C36.678 24.858 35.832 25.068 35.076 25.488C34.32 25.908 33.726 26.49 33.294 27.234C32.874 27.966 32.664 28.788 32.664 29.7C32.664 30.612 32.874 31.44 33.294 32.184C33.726 32.916 34.32 33.492 35.076 33.912C35.832 34.332 36.678 34.542 37.614 34.542C39.018 34.542 40.2 34.038 41.16 33.03L42.33 34.164C41.754 34.812 41.052 35.304 40.224 35.64C39.408 35.976 38.508 36.144 37.524 36.144ZM50.3221 36.144C49.0501 36.144 47.9041 35.868 46.8841 35.316C45.8641 34.752 45.0601 33.978 44.4721 32.994C43.8961 32.01 43.6081 30.912 43.6081 29.7C43.6081 28.488 43.8961 27.39 44.4721 26.406C45.0601 25.422 45.8641 24.654 46.8841 24.102C47.9041 23.538 49.0501 23.256 50.3221 23.256C51.5821 23.256 52.7221 23.538 53.7421 24.102C54.7621 24.654 55.5601 25.422 56.1361 26.406C56.7121 27.378 57.0001 28.476 57.0001 29.7C57.0001 30.924 56.7121 32.028 56.1361 33.012C55.5601 33.984 54.7621 34.752 53.7421 35.316C52.7221 35.868 51.5821 36.144 50.3221 36.144ZM50.3221 34.542C51.2461 34.542 52.0741 34.332 52.8061 33.912C53.5501 33.492 54.1321 32.916 54.5521 32.184C54.9841 31.44 55.2001 30.612 55.2001 29.7C55.2001 28.788 54.9841 27.966 54.5521 27.234C54.1321 26.49 53.5501 25.908 52.8061 25.488C52.0741 25.068 51.2461 24.858 50.3221 24.858C49.3981 24.858 48.5581 25.068 47.8021 25.488C47.0581 25.908 46.4701 26.49 46.0381 27.234C45.6181 27.966 45.4081 28.788 45.4081 29.7C45.4081 30.612 45.6181 31.44 46.0381 32.184C46.4701 32.916 47.0581 33.492 47.8021 33.912C48.5581 34.332 49.3981 34.542 50.3221 34.542ZM70.5873 23.4V36H69.1113L61.5513 26.604V36H59.7513V23.4H61.2273L68.7873 32.796V23.4H70.5873ZM76.1588 24.966V29.358H82.4768V30.906H76.1588V36H74.3588V23.4H83.2508V24.966H76.1588ZM85.7845 23.4H87.5845V36H85.7845V23.4ZM99.7808 36L97.0628 32.13C96.7268 32.154 96.4628 32.166 96.2708 32.166H93.1568V36H91.3568V23.4H96.2708C97.9028 23.4 99.1868 23.79 100.123 24.57C101.059 25.35 101.527 26.424 101.527 27.792C101.527 28.764 101.287 29.592 100.807 30.276C100.327 30.96 99.6428 31.458 98.7548 31.77L101.743 36H99.7808ZM96.2168 30.636C97.3568 30.636 98.2268 30.39 98.8268 29.898C99.4268 29.406 99.7268 28.704 99.7268 27.792C99.7268 26.88 99.4268 26.184 98.8268 25.704C98.2268 25.212 97.3568 24.966 96.2168 24.966H93.1568V30.636H96.2168ZM116.117 36L116.099 26.82L111.545 34.47H110.717L106.163 26.874V36H104.435V23.4H105.911L111.167 32.256L116.351 23.4H117.827L117.845 36H116.117ZM135.676 36.198L134.002 34.524C132.886 35.604 131.482 36.144 129.79 36.144C128.95 36.144 128.194 36.006 127.522 35.73C126.85 35.454 126.322 35.07 125.938 34.578C125.566 34.074 125.38 33.504 125.38 32.868C125.38 32.1 125.614 31.422 126.082 30.834C126.562 30.234 127.348 29.622 128.44 28.998C127.888 28.446 127.498 27.948 127.27 27.504C127.042 27.06 126.928 26.598 126.928 26.118C126.928 25.266 127.234 24.582 127.846 24.066C128.47 23.55 129.298 23.292 130.33 23.292C131.29 23.292 132.052 23.526 132.616 23.994C133.18 24.462 133.462 25.104 133.462 25.92C133.462 26.556 133.252 27.126 132.832 27.63C132.424 28.134 131.74 28.662 130.78 29.214L133.894 32.31C134.254 31.626 134.512 30.864 134.668 30.024L136.054 30.474C135.838 31.578 135.472 32.538 134.956 33.354L136.648 35.046L135.676 36.198ZM130.33 24.552C129.766 24.552 129.322 24.696 128.998 24.984C128.686 25.26 128.53 25.626 128.53 26.082C128.53 26.406 128.614 26.718 128.782 27.018C128.962 27.318 129.304 27.726 129.808 28.242C130.636 27.774 131.206 27.372 131.518 27.036C131.842 26.7 132.004 26.334 132.004 25.938C132.004 25.518 131.854 25.182 131.554 24.93C131.266 24.678 130.858 24.552 130.33 24.552ZM129.898 34.704C131.146 34.704 132.172 34.308 132.976 33.516L129.394 29.952C128.53 30.432 127.924 30.882 127.576 31.302C127.24 31.71 127.072 32.172 127.072 32.688C127.072 33.288 127.33 33.774 127.846 34.146C128.374 34.518 129.058 34.704 129.898 34.704ZM149.268 36.144C148.008 36.144 146.868 35.868 145.848 35.316C144.84 34.752 144.048 33.984 143.472 33.012C142.896 32.028 142.608 30.924 142.608 29.7C142.608 28.476 142.896 27.378 143.472 26.406C144.048 25.422 144.846 24.654 145.866 24.102C146.886 23.538 148.026 23.256 149.286 23.256C150.27 23.256 151.17 23.424 151.986 23.76C152.802 24.084 153.498 24.57 154.074 25.218L152.904 26.352C151.956 25.356 150.774 24.858 149.358 24.858C148.422 24.858 147.576 25.068 146.82 25.488C146.064 25.908 145.47 26.49 145.038 27.234C144.618 27.966 144.408 28.788 144.408 29.7C144.408 30.612 144.618 31.44 145.038 32.184C145.47 32.916 146.064 33.492 146.82 33.912C147.576 34.332 148.422 34.542 149.358 34.542C150.762 34.542 151.944 34.038 152.904 33.03L154.074 34.164C153.498 34.812 152.796 35.304 151.968 35.64C151.152 35.976 150.252 36.144 149.268 36.144ZM162.066 36.144C160.794 36.144 159.648 35.868 158.628 35.316C157.608 34.752 156.804 33.978 156.216 32.994C155.64 32.01 155.352 30.912 155.352 29.7C155.352 28.488 155.64 27.39 156.216 26.406C156.804 25.422 157.608 24.654 158.628 24.102C159.648 23.538 160.794 23.256 162.066 23.256C163.326 23.256 164.466 23.538 165.486 24.102C166.506 24.654 167.304 25.422 167.88 26.406C168.456 27.378 168.744 28.476 168.744 29.7C168.744 30.924 168.456 32.028 167.88 33.012C167.304 33.984 166.506 34.752 165.486 35.316C164.466 35.868 163.326 36.144 162.066 36.144ZM162.066 34.542C162.99 34.542 163.818 34.332 164.55 33.912C165.294 33.492 165.876 32.916 166.296 32.184C166.728 31.44 166.944 30.612 166.944 29.7C166.944 28.788 166.728 27.966 166.296 27.234C165.876 26.49 165.294 25.908 164.55 25.488C163.818 25.068 162.99 24.858 162.066 24.858C161.142 24.858 160.302 25.068 159.546 25.488C158.802 25.908 158.214 26.49 157.782 27.234C157.362 27.966 157.152 28.788 157.152 29.7C157.152 30.612 157.362 31.44 157.782 32.184C158.214 32.916 158.802 33.492 159.546 33.912C160.302 34.332 161.142 34.542 162.066 34.542ZM182.331 23.4V36H180.855L173.295 26.604V36H171.495V23.4H172.971L180.531 32.796V23.4H182.331ZM188.605 24.966H184.285V23.4H194.707V24.966H190.387V36H188.605V24.966ZM196.667 23.4H198.467V36H196.667V23.4ZM213.076 23.4V36H211.6L204.04 26.604V36H202.24V23.4H203.716L211.276 32.796V23.4H213.076ZM222.067 36.144C220.387 36.144 219.079 35.664 218.143 34.704C217.207 33.744 216.739 32.364 216.739 30.564V23.4H218.539V30.492C218.539 33.192 219.721 34.542 222.085 34.542C223.237 34.542 224.119 34.212 224.731 33.552C225.343 32.88 225.649 31.86 225.649 30.492V23.4H227.395V30.564C227.395 32.376 226.927 33.762 225.991 34.722C225.055 35.67 223.747 36.144 222.067 36.144ZM240.229 34.434V36H231.085V23.4H239.977V24.966H232.885V28.836H239.203V30.366H232.885V34.434H240.229Z" fill="white"/>
</svg>
