<svg width="167" height="36" viewBox="0 0 167 36" fill="none" xmlns="http://www.w3.org/2000/svg">
<rect x="0.35" y="0.35" width="166.3" height="35.3" rx="8.65" stroke="black" stroke-width="0.7"/>
<path d="M15.6665 11.3333H17.3332V24.6667H15.6665V11.3333ZM18.9998 11.3333H19.8332V24.6667H18.9998V11.3333ZM20.6665 11.3333H22.3332V24.6667H20.6665V11.3333ZM23.1665 11.3333H24.8332V24.6667H23.1665V11.3333ZM25.6665 11.3333H27.3332V24.6667H25.6665V11.3333ZM28.1665 11.3333H28.9998V24.6667H28.1665V11.3333ZM29.8332 11.3333H32.3332V24.6667H29.8332V11.3333Z" fill="black"/>
<path d="M46.912 24.096C46.08 24.096 45.28 23.9627 44.512 23.696C43.7547 23.4293 43.168 23.0773 42.752 22.64L43.216 21.728C43.6213 22.1333 44.16 22.464 44.832 22.72C45.504 22.9653 46.1973 23.088 46.912 23.088C47.9147 23.088 48.6667 22.9067 49.168 22.544C49.6693 22.1707 49.92 21.6907 49.92 21.104C49.92 20.656 49.7813 20.2987 49.504 20.032C49.2373 19.7653 48.9067 19.5627 48.512 19.424C48.1173 19.2747 47.568 19.1147 46.864 18.944C46.0213 18.7307 45.3493 18.528 44.848 18.336C44.3467 18.1333 43.9147 17.8293 43.552 17.424C43.2 17.0187 43.024 16.4693 43.024 15.776C43.024 15.2107 43.1733 14.6987 43.472 14.24C43.7707 13.7707 44.2293 13.3973 44.848 13.12C45.4667 12.8427 46.2347 12.704 47.152 12.704C47.792 12.704 48.416 12.7947 49.024 12.976C49.6427 13.1467 50.176 13.3867 50.624 13.696L50.224 14.64C49.7547 14.3307 49.2533 14.1013 48.72 13.952C48.1867 13.792 47.664 13.712 47.152 13.712C46.1707 13.712 45.4293 13.904 44.928 14.288C44.4373 14.6613 44.192 15.1467 44.192 15.744C44.192 16.192 44.3253 16.5547 44.592 16.832C44.8693 17.0987 45.2107 17.3067 45.616 17.456C46.032 17.5947 46.5867 17.7493 47.28 17.92C48.1013 18.1227 48.7627 18.3253 49.264 18.528C49.776 18.72 50.208 19.0187 50.56 19.424C50.912 19.8187 51.088 20.3573 51.088 21.04C51.088 21.6053 50.9333 22.1227 50.624 22.592C50.3253 23.0507 49.8613 23.4187 49.232 23.696C48.6027 23.9627 47.8293 24.096 46.912 24.096ZM56.9158 24.08C56.0838 24.08 55.3371 23.8987 54.6758 23.536C54.0251 23.1733 53.5131 22.6667 53.1398 22.016C52.7664 21.3547 52.5798 20.6133 52.5798 19.792C52.5798 18.9707 52.7664 18.2347 53.1398 17.584C53.5131 16.9333 54.0251 16.4267 54.6758 16.064C55.3371 15.7013 56.0838 15.52 56.9158 15.52C57.6411 15.52 58.2864 15.664 58.8518 15.952C59.4278 16.2293 59.8811 16.64 60.2118 17.184L59.3638 17.76C59.0864 17.344 58.7344 17.0347 58.3078 16.832C57.8811 16.6187 57.4171 16.512 56.9158 16.512C56.3078 16.512 55.7584 16.6507 55.2678 16.928C54.7878 17.1947 54.4091 17.5787 54.1318 18.08C53.8651 18.5813 53.7318 19.152 53.7318 19.792C53.7318 20.4427 53.8651 21.0187 54.1318 21.52C54.4091 22.0107 54.7878 22.3947 55.2678 22.672C55.7584 22.9387 56.3078 23.072 56.9158 23.072C57.4171 23.072 57.8811 22.9707 58.3078 22.768C58.7344 22.5653 59.0864 22.256 59.3638 21.84L60.2118 22.416C59.8811 22.96 59.4278 23.376 58.8518 23.664C58.2758 23.9413 57.6304 24.08 56.9158 24.08ZM65.3874 15.52C66.486 15.52 67.3287 15.7973 67.9154 16.352C68.502 16.896 68.7954 17.7067 68.7954 18.784V24H67.7074V22.688C67.4514 23.1253 67.0727 23.4667 66.5714 23.712C66.0807 23.9573 65.494 24.08 64.8114 24.08C63.8727 24.08 63.126 23.856 62.5714 23.408C62.0167 22.96 61.7394 22.368 61.7394 21.632C61.7394 20.9173 61.9954 20.3413 62.5074 19.904C63.03 19.4667 63.8567 19.248 64.9874 19.248H67.6594V18.736C67.6594 18.0107 67.4567 17.4613 67.0514 17.088C66.646 16.704 66.054 16.512 65.2754 16.512C64.742 16.512 64.23 16.6027 63.7394 16.784C63.2487 16.9547 62.8274 17.1947 62.4754 17.504L61.9634 16.656C62.39 16.2933 62.902 16.016 63.4994 15.824C64.0967 15.6213 64.726 15.52 65.3874 15.52ZM64.9874 23.184C65.6274 23.184 66.1767 23.04 66.6354 22.752C67.094 22.4533 67.4354 22.0267 67.6594 21.472V20.096H65.0194C63.5794 20.096 62.8594 20.5973 62.8594 21.6C62.8594 22.0907 63.046 22.48 63.4194 22.768C63.7927 23.0453 64.3154 23.184 64.9874 23.184ZM76.1689 15.52C77.2249 15.52 78.0622 15.8293 78.6809 16.448C79.3102 17.056 79.6249 17.9467 79.6249 19.12V24H78.4889V19.232C78.4889 18.3573 78.2702 17.6907 77.8329 17.232C77.3955 16.7733 76.7715 16.544 75.9609 16.544C75.0542 16.544 74.3342 16.816 73.8009 17.36C73.2782 17.8933 73.0169 18.6347 73.0169 19.584V24H71.8809V15.584H72.9689V17.136C73.2782 16.624 73.7049 16.2293 74.2489 15.952C74.8035 15.664 75.4435 15.52 76.1689 15.52ZM94.1925 18.224C94.9285 18.384 95.4938 18.704 95.8885 19.184C96.2938 19.6533 96.4965 20.2613 96.4965 21.008C96.4965 21.968 96.1392 22.7093 95.4245 23.232C94.7205 23.744 93.6752 24 92.2885 24H87.1365V12.8H91.9685C93.2165 12.8 94.1818 13.0507 94.8645 13.552C95.5578 14.0533 95.9045 14.7627 95.9045 15.68C95.9045 16.2987 95.7498 16.8267 95.4405 17.264C95.1418 17.6907 94.7258 18.0107 94.1925 18.224ZM88.3205 13.776V17.84H91.8885C92.7952 17.84 93.4938 17.6693 93.9845 17.328C94.4752 16.976 94.7205 16.4693 94.7205 15.808C94.7205 15.1467 94.4752 14.6453 93.9845 14.304C93.4938 13.952 92.7952 13.776 91.8885 13.776H88.3205ZM92.2725 23.024C93.2752 23.024 94.0325 22.8533 94.5445 22.512C95.0565 22.1707 95.3125 21.6373 95.3125 20.912C95.3125 19.5147 94.2992 18.816 92.2725 18.816H88.3205V23.024H92.2725ZM101.903 15.52C103.002 15.52 103.844 15.7973 104.431 16.352C105.018 16.896 105.311 17.7067 105.311 18.784V24H104.223V22.688C103.967 23.1253 103.588 23.4667 103.087 23.712C102.596 23.9573 102.01 24.08 101.327 24.08C100.388 24.08 99.6417 23.856 99.087 23.408C98.5323 22.96 98.255 22.368 98.255 21.632C98.255 20.9173 98.511 20.3413 99.023 19.904C99.5457 19.4667 100.372 19.248 101.503 19.248H104.175V18.736C104.175 18.0107 103.972 17.4613 103.567 17.088C103.162 16.704 102.57 16.512 101.791 16.512C101.258 16.512 100.746 16.6027 100.255 16.784C99.7643 16.9547 99.343 17.1947 98.991 17.504L98.479 16.656C98.9057 16.2933 99.4177 16.016 100.015 15.824C100.612 15.6213 101.242 15.52 101.903 15.52ZM101.503 23.184C102.143 23.184 102.692 23.04 103.151 22.752C103.61 22.4533 103.951 22.0267 104.175 21.472V20.096H101.535C100.095 20.096 99.375 20.5973 99.375 21.6C99.375 22.0907 99.5617 22.48 99.935 22.768C100.308 23.0453 100.831 23.184 101.503 23.184ZM109.485 17.232C109.751 16.6667 110.146 16.24 110.669 15.952C111.202 15.664 111.858 15.52 112.637 15.52V16.624L112.365 16.608C111.479 16.608 110.786 16.88 110.285 17.424C109.783 17.968 109.533 18.7307 109.533 19.712V24H108.397V15.584H109.485V17.232ZM118.103 24.08C117.271 24.08 116.525 23.8987 115.863 23.536C115.213 23.1733 114.701 22.6667 114.327 22.016C113.954 21.3547 113.767 20.6133 113.767 19.792C113.767 18.9707 113.954 18.2347 114.327 17.584C114.701 16.9333 115.213 16.4267 115.863 16.064C116.525 15.7013 117.271 15.52 118.103 15.52C118.829 15.52 119.474 15.664 120.039 15.952C120.615 16.2293 121.069 16.64 121.399 17.184L120.551 17.76C120.274 17.344 119.922 17.0347 119.495 16.832C119.069 16.6187 118.605 16.512 118.103 16.512C117.495 16.512 116.946 16.6507 116.455 16.928C115.975 17.1947 115.597 17.5787 115.319 18.08C115.053 18.5813 114.919 19.152 114.919 19.792C114.919 20.4427 115.053 21.0187 115.319 21.52C115.597 22.0107 115.975 22.3947 116.455 22.672C116.946 22.9387 117.495 23.072 118.103 23.072C118.605 23.072 119.069 22.9707 119.495 22.768C119.922 22.5653 120.274 22.256 120.551 21.84L121.399 22.416C121.069 22.96 120.615 23.376 120.039 23.664C119.463 23.9413 118.818 24.08 118.103 24.08ZM126.93 24.08C126.12 24.08 125.389 23.8987 124.738 23.536C124.088 23.1627 123.576 22.6507 123.202 22C122.829 21.3493 122.642 20.6133 122.642 19.792C122.642 18.9707 122.829 18.2347 123.202 17.584C123.576 16.9333 124.088 16.4267 124.738 16.064C125.389 15.7013 126.12 15.52 126.93 15.52C127.741 15.52 128.472 15.7013 129.122 16.064C129.773 16.4267 130.28 16.9333 130.642 17.584C131.016 18.2347 131.202 18.9707 131.202 19.792C131.202 20.6133 131.016 21.3493 130.642 22C130.28 22.6507 129.773 23.1627 129.122 23.536C128.472 23.8987 127.741 24.08 126.93 24.08ZM126.93 23.072C127.528 23.072 128.061 22.9387 128.53 22.672C129.01 22.3947 129.384 22.0053 129.65 21.504C129.917 21.0027 130.05 20.432 130.05 19.792C130.05 19.152 129.917 18.5813 129.65 18.08C129.384 17.5787 129.01 17.1947 128.53 16.928C128.061 16.6507 127.528 16.512 126.93 16.512C126.333 16.512 125.794 16.6507 125.314 16.928C124.845 17.1947 124.472 17.5787 124.194 18.08C123.928 18.5813 123.794 19.152 123.794 19.792C123.794 20.432 123.928 21.0027 124.194 21.504C124.472 22.0053 124.845 22.3947 125.314 22.672C125.794 22.9387 126.333 23.072 126.93 23.072ZM141.202 12.128V24H140.114V22.336C139.772 22.9013 139.319 23.3333 138.754 23.632C138.199 23.9307 137.57 24.08 136.866 24.08C136.076 24.08 135.362 23.8987 134.722 23.536C134.082 23.1733 133.58 22.6667 133.218 22.016C132.855 21.3653 132.674 20.624 132.674 19.792C132.674 18.96 132.855 18.2187 133.218 17.568C133.58 16.9173 134.082 16.416 134.722 16.064C135.362 15.7013 136.076 15.52 136.866 15.52C137.548 15.52 138.162 15.664 138.706 15.952C139.26 16.2293 139.714 16.64 140.066 17.184V12.128H141.202ZM136.962 23.072C137.548 23.072 138.076 22.9387 138.546 22.672C139.026 22.3947 139.399 22.0053 139.666 21.504C139.943 21.0027 140.082 20.432 140.082 19.792C140.082 19.152 139.943 18.5813 139.666 18.08C139.399 17.5787 139.026 17.1947 138.546 16.928C138.076 16.6507 137.548 16.512 136.962 16.512C136.364 16.512 135.826 16.6507 135.346 16.928C134.876 17.1947 134.503 17.5787 134.226 18.08C133.959 18.5813 133.826 19.152 133.826 19.792C133.826 20.432 133.959 21.0027 134.226 21.504C134.503 22.0053 134.876 22.3947 135.346 22.672C135.826 22.9387 136.364 23.072 136.962 23.072ZM151.693 20.144H144.653C144.717 21.0187 145.053 21.728 145.661 22.272C146.269 22.8053 147.037 23.072 147.965 23.072C148.488 23.072 148.968 22.9813 149.405 22.8C149.843 22.608 150.221 22.3307 150.541 21.968L151.181 22.704C150.808 23.152 150.339 23.4933 149.773 23.728C149.219 23.9627 148.605 24.08 147.933 24.08C147.069 24.08 146.301 23.8987 145.629 23.536C144.968 23.1627 144.451 22.6507 144.077 22C143.704 21.3493 143.517 20.6133 143.517 19.792C143.517 18.9707 143.693 18.2347 144.045 17.584C144.408 16.9333 144.899 16.4267 145.517 16.064C146.147 15.7013 146.851 15.52 147.629 15.52C148.408 15.52 149.107 15.7013 149.725 16.064C150.344 16.4267 150.829 16.9333 151.181 17.584C151.533 18.224 151.709 18.96 151.709 19.792L151.693 20.144ZM147.629 16.496C146.819 16.496 146.136 16.7573 145.581 17.28C145.037 17.792 144.728 18.464 144.653 19.296H150.621C150.547 18.464 150.232 17.792 149.677 17.28C149.133 16.7573 148.451 16.496 147.629 16.496Z" fill="black"/>
</svg>
