<svg width="386" height="60" viewBox="0 0 386 60" fill="none" xmlns="http://www.w3.org/2000/svg">
<rect x="0.35" y="0.35" width="385.3" height="59.3" rx="11.65" fill="white" stroke="black" stroke-width="0.7"/>
<path d="M34.392 24.966H30.072V23.4H40.494V24.966H36.174V36H34.392V24.966ZM45.3041 36.108C44.3561 36.108 43.5041 35.898 42.7481 35.478C41.9921 35.058 41.3981 34.482 40.9661 33.75C40.5461 33.006 40.3361 32.166 40.3361 31.23C40.3361 30.294 40.5461 29.46 40.9661 28.728C41.3981 27.984 41.9921 27.408 42.7481 27C43.5041 26.58 44.3561 26.37 45.3041 26.37C46.2521 26.37 47.0981 26.58 47.8421 27C48.5981 27.408 49.1861 27.984 49.6061 28.728C50.0381 29.46 50.2541 30.294 50.2541 31.23C50.2541 32.166 50.0381 33.006 49.6061 33.75C49.1861 34.482 48.5981 35.058 47.8421 35.478C47.0981 35.898 46.2521 36.108 45.3041 36.108ZM45.3041 34.596C45.9161 34.596 46.4621 34.458 46.9421 34.182C47.4341 33.894 47.8181 33.498 48.0941 32.994C48.3701 32.478 48.5081 31.89 48.5081 31.23C48.5081 30.57 48.3701 29.988 48.0941 29.484C47.8181 28.968 47.4341 28.572 46.9421 28.296C46.4621 28.02 45.9161 27.882 45.3041 27.882C44.6921 27.882 44.1401 28.02 43.6481 28.296C43.1681 28.572 42.7841 28.968 42.4961 29.484C42.2201 29.988 42.0821 30.57 42.0821 31.23C42.0821 31.89 42.2201 32.478 42.4961 32.994C42.7841 33.498 43.1681 33.894 43.6481 34.182C44.1401 34.458 44.6921 34.596 45.3041 34.596ZM62.5358 26.37C63.4598 26.37 64.2878 26.574 65.0198 26.982C65.7518 27.39 66.3218 27.96 66.7298 28.692C67.1498 29.424 67.3598 30.27 67.3598 31.23C67.3598 32.19 67.1498 33.042 66.7298 33.786C66.3218 34.518 65.7518 35.088 65.0198 35.496C64.2878 35.904 63.4598 36.108 62.5358 36.108C61.8278 36.108 61.1798 35.97 60.5918 35.694C60.0038 35.418 59.5178 35.016 59.1338 34.488V36H57.4778V22.644H59.2058V27.9C59.5898 27.396 60.0698 27.018 60.6458 26.766C61.2218 26.502 61.8518 26.37 62.5358 26.37ZM62.3918 34.596C63.0038 34.596 63.5498 34.458 64.0298 34.182C64.5218 33.894 64.9058 33.498 65.1818 32.994C65.4698 32.478 65.6138 31.89 65.6138 31.23C65.6138 30.57 65.4698 29.988 65.1818 29.484C64.9058 28.968 64.5218 28.572 64.0298 28.296C63.5498 28.02 63.0038 27.882 62.3918 27.882C61.7918 27.882 61.2458 28.02 60.7538 28.296C60.2618 28.572 59.8778 28.968 59.6018 29.484C59.3258 29.988 59.1878 30.57 59.1878 31.23C59.1878 31.89 59.3258 32.478 59.6018 32.994C59.8778 33.498 60.2618 33.894 60.7538 34.182C61.2458 34.458 61.7918 34.596 62.3918 34.596ZM78.3694 31.284C78.3694 31.416 78.3574 31.59 78.3334 31.806H70.5934C70.7014 32.646 71.0674 33.324 71.6914 33.84C72.3274 34.344 73.1134 34.596 74.0494 34.596C75.1894 34.596 76.1074 34.212 76.8034 33.444L77.7574 34.56C77.3254 35.064 76.7854 35.448 76.1374 35.712C75.5014 35.976 74.7874 36.108 73.9954 36.108C72.9874 36.108 72.0934 35.904 71.3134 35.496C70.5334 35.076 69.9274 34.494 69.4954 33.75C69.0754 33.006 68.8654 32.166 68.8654 31.23C68.8654 30.306 69.0694 29.472 69.4774 28.728C69.8974 27.984 70.4674 27.408 71.1874 27C71.9194 26.58 72.7414 26.37 73.6534 26.37C74.5654 26.37 75.3754 26.58 76.0834 27C76.8034 27.408 77.3614 27.984 77.7574 28.728C78.1654 29.472 78.3694 30.324 78.3694 31.284ZM73.6534 27.828C72.8254 27.828 72.1294 28.08 71.5654 28.584C71.0134 29.088 70.6894 29.748 70.5934 30.564H76.7134C76.6174 29.76 76.2874 29.106 75.7234 28.602C75.1714 28.086 74.4814 27.828 73.6534 27.828ZM90.6608 26.37C91.5848 26.37 92.4128 26.574 93.1448 26.982C93.8768 27.39 94.4468 27.96 94.8548 28.692C95.2748 29.424 95.4848 30.27 95.4848 31.23C95.4848 32.19 95.2748 33.042 94.8548 33.786C94.4468 34.518 93.8768 35.088 93.1448 35.496C92.4128 35.904 91.5848 36.108 90.6608 36.108C89.9768 36.108 89.3468 35.976 88.7708 35.712C88.2068 35.448 87.7268 35.064 87.3308 34.56V39.492H85.6028V26.46H87.2588V27.972C87.6428 27.444 88.1288 27.048 88.7168 26.784C89.3048 26.508 89.9528 26.37 90.6608 26.37ZM90.5168 34.596C91.1288 34.596 91.6748 34.458 92.1548 34.182C92.6468 33.894 93.0308 33.498 93.3068 32.994C93.5948 32.478 93.7388 31.89 93.7388 31.23C93.7388 30.57 93.5948 29.988 93.3068 29.484C93.0308 28.968 92.6468 28.572 92.1548 28.296C91.6748 28.02 91.1288 27.882 90.5168 27.882C89.9168 27.882 89.3708 28.026 88.8788 28.314C88.3988 28.59 88.0148 28.98 87.7268 29.484C87.4508 29.988 87.3128 30.57 87.3128 31.23C87.3128 31.89 87.4508 32.478 87.7268 32.994C88.0028 33.498 88.3868 33.894 88.8788 34.182C89.3708 34.458 89.9168 34.596 90.5168 34.596ZM101.258 26.37C102.578 26.37 103.586 26.694 104.282 27.342C104.99 27.99 105.344 28.956 105.344 30.24V36H103.706V34.74C103.418 35.184 103.004 35.526 102.464 35.766C101.936 35.994 101.306 36.108 100.574 36.108C99.5065 36.108 98.6485 35.85 98.0005 35.334C97.3645 34.818 97.0465 34.14 97.0465 33.3C97.0465 32.46 97.3525 31.788 97.9645 31.284C98.5765 30.768 99.5485 30.51 100.88 30.51H103.616V30.168C103.616 29.424 103.4 28.854 102.968 28.458C102.536 28.062 101.9 27.864 101.06 27.864C100.496 27.864 99.9445 27.96 99.4045 28.152C98.8645 28.332 98.4085 28.578 98.0365 28.89L97.3165 27.594C97.8085 27.198 98.3965 26.898 99.0805 26.694C99.7645 26.478 100.49 26.37 101.258 26.37ZM100.862 34.776C101.522 34.776 102.092 34.632 102.572 34.344C103.052 34.044 103.4 33.624 103.616 33.084V31.752H100.952C99.4885 31.752 98.7565 32.244 98.7565 33.228C98.7565 33.708 98.9425 34.086 99.3145 34.362C99.6865 34.638 100.202 34.776 100.862 34.776ZM108.542 26.46H110.27V36H108.542V26.46ZM109.406 24.624C109.07 24.624 108.788 24.516 108.56 24.3C108.344 24.084 108.236 23.82 108.236 23.508C108.236 23.196 108.344 22.932 108.56 22.716C108.788 22.488 109.07 22.374 109.406 22.374C109.742 22.374 110.018 22.482 110.234 22.698C110.462 22.902 110.576 23.16 110.576 23.472C110.576 23.796 110.462 24.072 110.234 24.3C110.018 24.516 109.742 24.624 109.406 24.624ZM122.57 22.644V36H120.914V34.488C120.53 35.016 120.044 35.418 119.456 35.694C118.868 35.97 118.22 36.108 117.512 36.108C116.588 36.108 115.76 35.904 115.028 35.496C114.296 35.088 113.72 34.518 113.3 33.786C112.892 33.042 112.688 32.19 112.688 31.23C112.688 30.27 112.892 29.424 113.3 28.692C113.72 27.96 114.296 27.39 115.028 26.982C115.76 26.574 116.588 26.37 117.512 26.37C118.196 26.37 118.826 26.502 119.402 26.766C119.978 27.018 120.458 27.396 120.842 27.9V22.644H122.57ZM117.656 34.596C118.256 34.596 118.802 34.458 119.294 34.182C119.786 33.894 120.17 33.498 120.446 32.994C120.722 32.478 120.86 31.89 120.86 31.23C120.86 30.57 120.722 29.988 120.446 29.484C120.17 28.968 119.786 28.572 119.294 28.296C118.802 28.02 118.256 27.882 117.656 27.882C117.044 27.882 116.492 28.02 116 28.296C115.52 28.572 115.136 28.968 114.848 29.484C114.572 29.988 114.434 30.57 114.434 31.23C114.434 31.89 114.572 32.478 114.848 32.994C115.136 33.498 115.52 33.894 116 34.182C116.492 34.458 117.044 34.596 117.656 34.596ZM126.253 28.836C125.917 28.836 125.629 28.722 125.389 28.494C125.149 28.254 125.029 27.954 125.029 27.594C125.029 27.246 125.149 26.958 125.389 26.73C125.629 26.49 125.917 26.37 126.253 26.37C126.589 26.37 126.871 26.484 127.099 26.712C127.327 26.94 127.441 27.234 127.441 27.594C127.441 27.954 127.321 28.254 127.081 28.494C126.853 28.722 126.577 28.836 126.253 28.836ZM126.253 36.108C125.917 36.108 125.629 35.994 125.389 35.766C125.149 35.526 125.029 35.226 125.029 34.866C125.029 34.518 125.149 34.23 125.389 34.002C125.629 33.762 125.917 33.642 126.253 33.642C126.589 33.642 126.871 33.756 127.099 33.984C127.327 34.212 127.441 34.506 127.441 34.866C127.441 35.226 127.321 35.526 127.081 35.766C126.853 35.994 126.577 36.108 126.253 36.108Z" fill="black"/>
</svg>
