<svg width="386" height="60" viewBox="0 0 386 60" fill="none" xmlns="http://www.w3.org/2000/svg">
<rect x="0.35" y="0.35" width="385.3" height="59.3" rx="11.65" fill="white" stroke="black" stroke-width="0.7"/>
<path d="M37.11 36.144C35.43 36.144 34.122 35.664 33.186 34.704C32.25 33.744 31.782 32.364 31.782 30.564V23.4H33.582V30.492C33.582 33.192 34.764 34.542 37.128 34.542C38.28 34.542 39.162 34.212 39.774 33.552C40.386 32.88 40.692 31.86 40.692 30.492V23.4H42.438V30.564C42.438 32.376 41.97 33.762 41.034 34.722C40.098 35.67 38.79 36.144 37.11 36.144ZM50.9343 26.37C51.8583 26.37 52.6863 26.574 53.4183 26.982C54.1503 27.39 54.7203 27.96 55.1283 28.692C55.5483 29.424 55.7583 30.27 55.7583 31.23C55.7583 32.19 55.5483 33.042 55.1283 33.786C54.7203 34.518 54.1503 35.088 53.4183 35.496C52.6863 35.904 51.8583 36.108 50.9343 36.108C50.2503 36.108 49.6203 35.976 49.0443 35.712C48.4803 35.448 48.0003 35.064 47.6043 34.56V39.492H45.8763V26.46H47.5323V27.972C47.9163 27.444 48.4023 27.048 48.9903 26.784C49.5783 26.508 50.2263 26.37 50.9343 26.37ZM50.7903 34.596C51.4023 34.596 51.9483 34.458 52.4283 34.182C52.9203 33.894 53.3043 33.498 53.5803 32.994C53.8683 32.478 54.0123 31.89 54.0123 31.23C54.0123 30.57 53.8683 29.988 53.5803 29.484C53.3043 28.968 52.9203 28.572 52.4283 28.296C51.9483 28.02 51.4023 27.882 50.7903 27.882C50.1903 27.882 49.6443 28.026 49.1523 28.314C48.6723 28.59 48.2883 28.98 48.0003 29.484C47.7243 29.988 47.5863 30.57 47.5863 31.23C47.5863 31.89 47.7243 32.478 48.0003 32.994C48.2763 33.498 48.6603 33.894 49.1523 34.182C49.6443 34.458 50.1903 34.596 50.7903 34.596ZM67.1458 22.644V36H65.4898V34.488C65.1058 35.016 64.6198 35.418 64.0318 35.694C63.4438 35.97 62.7958 36.108 62.0878 36.108C61.1638 36.108 60.3358 35.904 59.6038 35.496C58.8718 35.088 58.2958 34.518 57.8758 33.786C57.4678 33.042 57.2638 32.19 57.2638 31.23C57.2638 30.27 57.4678 29.424 57.8758 28.692C58.2958 27.96 58.8718 27.39 59.6038 26.982C60.3358 26.574 61.1638 26.37 62.0878 26.37C62.7718 26.37 63.4018 26.502 63.9778 26.766C64.5538 27.018 65.0338 27.396 65.4178 27.9V22.644H67.1458ZM62.2318 34.596C62.8318 34.596 63.3778 34.458 63.8698 34.182C64.3618 33.894 64.7458 33.498 65.0218 32.994C65.2978 32.478 65.4358 31.89 65.4358 31.23C65.4358 30.57 65.2978 29.988 65.0218 29.484C64.7458 28.968 64.3618 28.572 63.8698 28.296C63.3778 28.02 62.8318 27.882 62.2318 27.882C61.6198 27.882 61.0678 28.02 60.5758 28.296C60.0958 28.572 59.7118 28.968 59.4238 29.484C59.1478 29.988 59.0098 30.57 59.0098 31.23C59.0098 31.89 59.1478 32.478 59.4238 32.994C59.7118 33.498 60.0958 33.894 60.5758 34.182C61.0678 34.458 61.6198 34.596 62.2318 34.596ZM73.8893 26.37C75.2093 26.37 76.2173 26.694 76.9133 27.342C77.6213 27.99 77.9753 28.956 77.9753 30.24V36H76.3373V34.74C76.0493 35.184 75.6353 35.526 75.0953 35.766C74.5673 35.994 73.9373 36.108 73.2053 36.108C72.1373 36.108 71.2793 35.85 70.6313 35.334C69.9953 34.818 69.6773 34.14 69.6773 33.3C69.6773 32.46 69.9833 31.788 70.5953 31.284C71.2073 30.768 72.1793 30.51 73.5113 30.51H76.2473V30.168C76.2473 29.424 76.0313 28.854 75.5993 28.458C75.1673 28.062 74.5313 27.864 73.6913 27.864C73.1273 27.864 72.5753 27.96 72.0353 28.152C71.4953 28.332 71.0393 28.578 70.6673 28.89L69.9473 27.594C70.4393 27.198 71.0273 26.898 71.7113 26.694C72.3953 26.478 73.1213 26.37 73.8893 26.37ZM73.4933 34.776C74.1533 34.776 74.7233 34.632 75.2033 34.344C75.6833 34.044 76.0313 33.624 76.2473 33.084V31.752H73.5833C72.1193 31.752 71.3873 32.244 71.3873 33.228C71.3873 33.708 71.5733 34.086 71.9453 34.362C72.3173 34.638 72.8333 34.776 73.4933 34.776ZM86.5372 35.442C86.2852 35.658 85.9732 35.826 85.6012 35.946C85.2292 36.054 84.8452 36.108 84.4492 36.108C83.4892 36.108 82.7452 35.85 82.2172 35.334C81.6892 34.818 81.4252 34.08 81.4252 33.12V27.882H79.8052V26.46H81.4252V24.372H83.1532V26.46H85.8892V27.882H83.1532V33.048C83.1532 33.564 83.2792 33.96 83.5312 34.236C83.7952 34.512 84.1672 34.65 84.6472 34.65C85.1752 34.65 85.6252 34.5 85.9972 34.2L86.5372 35.442ZM96.9319 31.284C96.9319 31.416 96.9199 31.59 96.8959 31.806H89.1559C89.2639 32.646 89.6299 33.324 90.2539 33.84C90.8899 34.344 91.6759 34.596 92.6119 34.596C93.7519 34.596 94.6699 34.212 95.3659 33.444L96.3199 34.56C95.8879 35.064 95.3479 35.448 94.6999 35.712C94.0639 35.976 93.3499 36.108 92.5579 36.108C91.5499 36.108 90.6559 35.904 89.8759 35.496C89.0959 35.076 88.4899 34.494 88.0579 33.75C87.6379 33.006 87.4279 32.166 87.4279 31.23C87.4279 30.306 87.6319 29.472 88.0399 28.728C88.4599 27.984 89.0299 27.408 89.7499 27C90.4819 26.58 91.3039 26.37 92.2159 26.37C93.1279 26.37 93.9379 26.58 94.6459 27C95.3659 27.408 95.9239 27.984 96.3199 28.728C96.7279 29.472 96.9319 30.324 96.9319 31.284ZM92.2159 27.828C91.3879 27.828 90.6919 28.08 90.1279 28.584C89.5759 29.088 89.2519 29.748 89.1559 30.564H95.2759C95.1799 29.76 94.8499 29.106 94.2859 28.602C93.7339 28.086 93.0439 27.828 92.2159 27.828ZM110.051 36.144C108.791 36.144 107.651 35.868 106.631 35.316C105.623 34.752 104.831 33.984 104.255 33.012C103.679 32.028 103.391 30.924 103.391 29.7C103.391 28.476 103.679 27.378 104.255 26.406C104.831 25.422 105.629 24.654 106.649 24.102C107.669 23.538 108.809 23.256 110.069 23.256C111.053 23.256 111.953 23.424 112.769 23.76C113.585 24.084 114.281 24.57 114.857 25.218L113.687 26.352C112.739 25.356 111.557 24.858 110.141 24.858C109.205 24.858 108.359 25.068 107.603 25.488C106.847 25.908 106.253 26.49 105.821 27.234C105.401 27.966 105.191 28.788 105.191 29.7C105.191 30.612 105.401 31.44 105.821 32.184C106.253 32.916 106.847 33.492 107.603 33.912C108.359 34.332 109.205 34.542 110.141 34.542C111.545 34.542 112.727 34.038 113.687 33.03L114.857 34.164C114.281 34.812 113.579 35.304 112.751 35.64C111.935 35.976 111.035 36.144 110.051 36.144ZM120.524 26.37C121.844 26.37 122.852 26.694 123.548 27.342C124.256 27.99 124.61 28.956 124.61 30.24V36H122.972V34.74C122.684 35.184 122.27 35.526 121.73 35.766C121.202 35.994 120.572 36.108 119.84 36.108C118.772 36.108 117.914 35.85 117.266 35.334C116.63 34.818 116.312 34.14 116.312 33.3C116.312 32.46 116.618 31.788 117.23 31.284C117.842 30.768 118.814 30.51 120.146 30.51H122.882V30.168C122.882 29.424 122.666 28.854 122.234 28.458C121.802 28.062 121.166 27.864 120.326 27.864C119.762 27.864 119.21 27.96 118.67 28.152C118.13 28.332 117.674 28.578 117.302 28.89L116.582 27.594C117.074 27.198 117.662 26.898 118.346 26.694C119.03 26.478 119.756 26.37 120.524 26.37ZM120.128 34.776C120.788 34.776 121.358 34.632 121.838 34.344C122.318 34.044 122.666 33.624 122.882 33.084V31.752H120.218C118.754 31.752 118.022 32.244 118.022 33.228C118.022 33.708 118.208 34.086 118.58 34.362C118.952 34.638 119.468 34.776 120.128 34.776ZM129.464 28.062C129.764 27.51 130.208 27.09 130.796 26.802C131.384 26.514 132.098 26.37 132.938 26.37V28.044C132.842 28.032 132.71 28.026 132.542 28.026C131.606 28.026 130.868 28.308 130.328 28.872C129.8 29.424 129.536 30.216 129.536 31.248V36H127.808V26.46H129.464V28.062ZM140.818 35.442C140.566 35.658 140.254 35.826 139.882 35.946C139.51 36.054 139.126 36.108 138.73 36.108C137.77 36.108 137.026 35.85 136.498 35.334C135.97 34.818 135.706 34.08 135.706 33.12V27.882H134.086V26.46H135.706V24.372H137.434V26.46H140.17V27.882H137.434V33.048C137.434 33.564 137.56 33.96 137.812 34.236C138.076 34.512 138.448 34.65 138.928 34.65C139.456 34.65 139.906 34.5 140.278 34.2L140.818 35.442Z" fill="black"/>
<path d="M354 40H338C337.735 40 337.48 39.8946 337.293 39.7071C337.105 39.5196 337 39.2652 337 39V21C337 20.7348 337.105 20.4804 337.293 20.2929C337.48 20.1054 337.735 20 338 20H354C354.265 20 354.52 20.1054 354.707 20.2929C354.895 20.4804 355 20.7348 355 21V39C355 39.2652 354.895 39.5196 354.707 39.7071C354.52 39.8946 354.265 40 354 40ZM353 38V22H339V38H353ZM343 24V26C343 26.7956 343.316 27.5587 343.879 28.1213C344.441 28.6839 345.204 29 346 29C346.796 29 347.559 28.6839 348.121 28.1213C348.684 27.5587 349 26.7956 349 26V24H351V26C351 27.3261 350.473 28.5979 349.536 29.5355C348.598 30.4732 347.326 31 346 31C344.674 31 343.402 30.4732 342.464 29.5355C341.527 28.5979 341 27.3261 341 26V24H343Z" fill="black"/>
</svg>
